/* XPM */
const char * accelX_pos_xpm[] = {
"38 60 110 2",
"  	c None",
". 	c #030303",
"+ 	c #000000",
"@ 	c #090909",
"# 	c #0C0C0C",
"$ 	c #3D3D3D",
"% 	c #292929",
"& 	c #A3A3A3",
"* 	c #686868",
"= 	c #B3B3B3",
"- 	c #1D1D1D",
"; 	c #B2B2B2",
"> 	c #8E8E8E",
", 	c #0A0A0A",
"' 	c #454545",
") 	c #A7A7A7",
"! 	c #0B0B0B",
"~ 	c #6F6F6F",
"{ 	c #242424",
"] 	c #939393",
"^ 	c #4D4D4D",
"/ 	c #0E0E0E",
"( 	c #ABABAB",
"_ 	c #777777",
": 	c #2A2A2A",
"< 	c #2B2B2B",
"[ 	c #060606",
"} 	c #080808",
"| 	c #999999",
"1 	c #9F9F9F",
"2 	c #979797",
"3 	c #050505",
"4 	c #565656",
"5 	c #111111",
"6 	c #ADADAD",
"7 	c #7E7E7E",
"8 	c #323232",
"9 	c #9E9E9E",
"0 	c #5D5D5D",
"a 	c #A0A0A0",
"b 	c #757575",
"c 	c #A2A2A2",
"d 	c #969696",
"e 	c #767676",
"f 	c #151515",
"g 	c #AFAFAF",
"h 	c #AEAEAE",
"i 	c #161616",
"j 	c #3C3C3C",
"k 	c #858585",
"l 	c #898989",
"m 	c #272727",
"n 	c #8C8C8C",
"o 	c #020202",
"p 	c #6E6E6E",
"q 	c #4A4A4A",
"r 	c #0F0F0F",
"s 	c #A4A4A4",
"t 	c #393939",
"u 	c #7F7F7F",
"v 	c #070707",
"w 	c #535353",
"x 	c #878787",
"y 	c #010101",
"z 	c #303030",
"A 	c #191919",
"B 	c #3B3B3B",
"C 	c #656565",
"D 	c #8B8B8B",
"E 	c #868686",
"F 	c #2C2C2C",
"G 	c #B1B1B1",
"H 	c #626262",
"I 	c #A1A1A1",
"J 	c #8A8A8A",
"K 	c #484848",
"L 	c #333333",
"M 	c #989898",
"N 	c #181818",
"O 	c #373737",
"P 	c #222222",
"Q 	c #B0B0B0",
"R 	c #646464",
"S 	c #929292",
"T 	c #9A9A9A",
"U 	c #575757",
"V 	c #AAAAAA",
"W 	c #141414",
"X 	c #3A3A3A",
"Y 	c #828282",
"Z 	c #2D2D2D",
"` 	c #959595",
" .	c #9D9D9D",
"..	c #313131",
"+.	c #7D7D7D",
"@.	c #545454",
"#.	c #919191",
"$.	c #040404",
"%.	c #212121",
"&.	c #1F1F1F",
"*.	c #A9A9A9",
"=.	c #202020",
"-.	c #4B4B4B",
";.	c #6D6D6D",
">.	c #A6A6A6",
",.	c #232323",
"'.	c #424242",
").	c #1B1B1B",
"!.	c #262626",
"~.	c #282828",
"                                                                            ",
"                                  .                                         ",
"                                  +                                         ",
"                                @ #                                         ",
"                              @ $ %                                         ",
"                              @ & %                                         ",
"                            # * = %                                         ",
"                            - ; = %                                         ",
"                          @ > = = %                                         ",
"                        , ' = = = %                                         ",
"                        , ) = = = %                                         ",
"                      ! ~ = = = = %                                         ",
"                      { ; = = = = %                                         ",
"                    @ ] = = = = = %                                         ",
"                  ! ^ = = = = = = %                                         ",
"                  / ( = = = = = = %                                         ",
"                ! _ = = = = = = = %                                         ",
"                : = = = = = = = = < @ ! ! ! ! ! ! ! ! ! ! ! ! ! ! ! ! ! ! [ ",
"              } | = = = = = = = = 1 2 2 2 2 2 2 2 2 2 2 2 2 2 2 2 2 2 2 2 3 ",
"            # 4 = = = = = = = = = = = = = = = = = = = = = = = = = = = = = [ ",
"            5 6 = = = = = = = = = = = = = = = = = = = = = = = = = = = = = [ ",
"          , 7 = = = = = = = = = = = = = = = = = = = = = = = = = = = = = = [ ",
"          8 = = = = = = = = = = = = = = = = = = = = = = = = = = = = = = = [ ",
"        } 9 = = = = = = = = = = = = = = = = = = = = = = = = = = = = = = = [ ",
"      ! 0 = = = = = = = = = = = = = = = a b c = = = = d e 6 = = = = = = = [ ",
"      f g = = = = = = = = = = = = = = = h - 8 = = = ( i j = = = = = = = = [ ",
"    , k = = = = = = = = l m = = = = = = = n o p = = q r s = = = = = = = = [ ",
"  } t = = = = = = = = = u v = = = = = = = = w , 1 x y _ = = = = = = = = = [ ",
"  @ c = = = = = = = = = u v = = = = = = = = h - z A B = = = = = = = = = = [ ",
"# C = = = = = = = = = = u v = = = = = = = = = D + / s = = = = = = = = = = [ ",
"# C = = = = = = E $ $ $ F o $ $ $ $ G = = = = H + ! I = = = = = = = = = = [ ",
"  @ c = = = = = J K K K L . K K K K G = = = M [ 4 N O = = = = = = = = = = [ ",
"    t = = = = = = = = = u v = = = = = = = ; % P Q k y b = = = = = = = = = [ ",
"    , k = = = = = = = = u v = = = = = = = R . S = = K / s = = = = = = = = [ ",
"      f g = = = = = = = u v = = = = = = T v U = = = V W $ = = = = = = = = [ ",
"      ! 0 = = = = = = = n L = = = = = = U X g = = = = Y Z ` = = = = = = = [ ",
"        }  .= = = = = = = = = = = = = = = = = = = = = = = = = = = = = = = [ ",
"          ..= = = = = = = = = = = = = = = = = = = = = = = = = = = = = = = [ ",
"          , +.= = = = = = = = = = = = = = = = = = = = = = = = = = = = = = [ ",
"            5 6 = = = = = = = = = = = = = = = = = = = = = = = = = = = = = [ ",
"            ! @.= = = = = = = = = = = = = = = = = = = = = = = = = = = = = [ ",
"              } M = = = = = = = = | #.#.#.#.#.#.#.#.#.#.#.#.#.#.#.#.#.#.#.$.",
"                % = = = = = = = = %.! / / / / / / / / / / / / / / / / / / v ",
"                ! b = = = = = = = &.                                        ",
"                  # *.= = = = = = =.                                        ",
"                  , -.= = = = = = =.                                        ",
"                    @ S = = = = = %.                                        ",
"                      P ; = = = = %.                                        ",
"                      ! ;.= = = = P                                         ",
"                        , >.= = = ,.                                        ",
"                        @ '.= = = {                                         ",
"                          @ D = = {                                         ",
"                            ).G = !.                                        ",
"                            # R = !.                                        ",
"                              } I m                                         ",
"                              } t ~.                                        ",
"                                @ !                                         ",
"                                  +                                         ",
"                                  y                                         ",
"                                                                            "};
