/* XPM */
const char * accelX_neg_xpm[] = {
"40 57 108 2",
"  	c None",
". 	c #838383",
"+ 	c #888888",
"@ 	c #8A8A8A",
"# 	c #868686",
"$ 	c #878787",
"% 	c #818181",
"& 	c #808080",
"* 	c #828282",
"= 	c #7F7F7F",
"- 	c #858585",
"; 	c #979797",
"> 	c #7E7E7E",
", 	c #949494",
"' 	c #A9A9A9",
") 	c #BCBCBC",
"! 	c #A5A5A5",
"~ 	c #A2A2A2",
"{ 	c #C1C1C1",
"] 	c #848484",
"^ 	c #B9B9B9",
"/ 	c #C0C0C0",
"( 	c #9F9F9F",
"_ 	c #7D7D7D",
": 	c #ACACAC",
"< 	c #C2C2C2",
"[ 	c #A8A8A8",
"} 	c #8F8F8F",
"| 	c #BFBFBF",
"1 	c #AAAAAA",
"2 	c #ABABAB",
"3 	c #ADADAD",
"4 	c #CACACA",
"5 	c #7B7B7B",
"6 	c #B0B0B0",
"7 	c #C9C9C9",
"8 	c #959595",
"9 	c #C3C3C3",
"0 	c #B7B7B7",
"a 	c #C5C5C5",
"b 	c #C7C7C7",
"c 	c #989898",
"d 	c #C6C6C6",
"e 	c #474747",
"f 	c #000000",
"g 	c #C4C4C4",
"h 	c #898989",
"i 	c #555555",
"j 	c #B6B6B6",
"k 	c #BABABA",
"l 	c #2F2F2F",
"m 	c #0C0C0C",
"n 	c #A7A7A7",
"o 	c #040404",
"p 	c #404040",
"q 	c #999999",
"r 	c #080808",
"s 	c #2A2A2A",
"t 	c #BBBBBB",
"u 	c #1C1C1C",
"v 	c #131313",
"w 	c #8B8B8B",
"x 	c #5C5C5C",
"y 	c #6D6D6D",
"z 	c #525252",
"A 	c #787878",
"B 	c #2B2B2B",
"C 	c #353535",
"D 	c #A3A3A3",
"E 	c #CFCFCF",
"F 	c #CECECE",
"G 	c #AEAEAE",
"H 	c #191919",
"I 	c #050505",
"J 	c #AFAFAF",
"K 	c #3F3F3F",
"L 	c #070707",
"M 	c #B4B4B4",
"N 	c #303030",
"O 	c #C8C8C8",
"P 	c #3C3C3C",
"Q 	c #454545",
"R 	c #3E3E3E",
"S 	c #6A6A6A",
"T 	c #8C8C8C",
"U 	c #626262",
"V 	c #020202",
"W 	c #4C4C4C",
"X 	c #414141",
"Y 	c #939393",
"Z 	c #B1B1B1",
"` 	c #1E1E1E",
" .	c #181818",
"..	c #111111",
"+.	c #252525",
"@.	c #010101",
"#.	c #9C9C9C",
"$.	c #9A9A9A",
"%.	c #B8B8B8",
"&.	c #969696",
"*.	c #BEBEBE",
"=.	c #BDBDBD",
"-.	c #8D8D8D",
";.	c #8E8E8E",
">.	c #A1A1A1",
",.	c #7C7C7C",
"'.	c #A4A4A4",
").	c #A0A0A0",
"                              . +                                               ",
"                            @ # $                                               ",
"                            % & *                                               ",
"                          @ = & *                                               ",
"                          & & & *                                               ",
"                        & & & = *                                               ",
"                        % & % & *                                               ",
"                      - & % ; = *                                               ",
"                      = > , ' = *                                               ",
"                    * & % ) ! = *                                               ",
"                  . & = ~ { ! = *                                               ",
"                  ] & $ ^ / ! = *                                               ",
"                  = = ( { / ! = *                                               ",
"                & & . / / / ! = %                                               ",
"              # & _ : < / / [ - & & & & & & & & & & & & & & & & & & & & & & - } ",
"              * & } | / / / 1 $ = & & & & & & & & & & & & & & & & & & & & & & & ",
"            . & % 2 / / / / / 3 ! ! ! ! ! ! ! ! ! ! ! ! ! ! ! ! ! ! ! ! ! 1 _ & ",
"            % & @ / / / / / / { { { { { { { { { { { { { { { { { { { { { / 4 5 & ",
"          $ & > 6 { / / / / / / / / / / / / / / / / / / / / / / / / / / | 7 5 & ",
"          = > 8 9 / / / / / / / / / / / / / / / / / / / / / / / / / / / | 7 5 & ",
"        . & * 0 / / / / / / / / a b / / / / / / { b a / / / / / / / / / | 7 5 & ",
"        % & c | / / / / / / / d e f c g / / / g h f i b / / / / / / / / | 7 5 & ",
"      . & & j / / / / / / / / / k l m ' < / 9 n o p | / / / / / / / / / | 7 5 & ",
"      = > q 9 / / / / / / / / / { n r s k / t u v 2 / / / / / / / / / / | 7 5 & ",
"    = & ] | / / / / / / / / / / / b w f x b i f } d / / / / / / / / / / | 7 5 & ",
"  % & > n / / / / / / / / / / / / / < y f z f A 9 / / / / / / / / / / / | 7 5 & ",
"  - & h k / / / / / / / / / / / / / / t B f C ) / / / / / / / / / / / / | 7 5 & ",
"  = = D { / / / / / / E F F E < / / / G H I v J / / / / / / / / / / / / | 7 5 & ",
". @ > / / / / / / / a f f f f ! / / 9 K L M m N O / / / / / / / / / / / | 7 5 & ",
"  = = D { / / / / / 9 P Q Q R J / b S f T { % f U a / / / / / / / / / / | 7 5 & ",
"  - & h k / / / / / / g g g g { < w V W { / 9 X o Y / / / / / / / / / / | 7 5 & ",
"  & & = n / / / / / / / / / / / Z `  .a / / / g ..+.^ / / / / / / / / / | 7 5 & ",
"    % & ] | / / / / / / / / / 9 C @.[ < / / / < #.f K a / / / / / / / / | 7 5 & ",
"      & > $.9 / / / / / / / / / %.k / / / / / / / ^ ^ / / / / / / / / / | 7 5 & ",
"      * & & 0 / / / / / / / / / / / / / / / / / / / / / / / / / / / / / | 7 5 & ",
"        % & c | / / / / / / / / / / / / / / / / / / / / / / / / / / / / | 7 5 & ",
"        & & * 0 / / / / / / / / / / / / / / / / / / / / / / / / / / / / | 7 5 & ",
"          = > &.9 / / / / / / / / / / / / / / / / / / / / / / / / / / / | 7 5 & ",
"          T = > Z { / / / / / / / / / / / / / / / / / / / / / / / / / / | 7 5 & ",
"            * & w / / / / / / *.=.=.=.=.=.=.=.=.=.=.=.=.=.=.=.=.=.=.=.=.) a 5 & ",
"            ] & % 2 / / / / k q -.;.;.;.;.;.;.;.;.;.;.;.;.;.;.;.;.;.;.;.-.} = = ",
"              * & } | / / / 6 >.> & & & & & & & & & & & & & & & & & & & & & *   ",
"              . & ,.3 < / / '._ % . & & & & & & & & & & & & & & & & & & & & # % ",
"                % & ] { / / ! = *                                               ",
"                  & = ).{ / ! = *                                               ",
"                  & & $ k / ! = *                                               ",
"                  - & > D { ! = *                                               ",
"                    . & % =.! = *                                               ",
"                      = > 8 ' = *                                               ",
"                      @ & % c = *                                               ",
"                        * & % & *                                               ",
"                        & & & & *                                               ",
"                          & & & *                                               ",
"                          w & & *                                               ",
"                            & & *                                               ",
"                              # $                                               ",
"                              * #                                               "};
