/* XPM */
const char * accelY_pos_xpm[] = {
"60 38 102 2",
"  	c None",
". 	c #0C0C0C",
"+ 	c #080808",
"@ 	c #090909",
"# 	c #656565",
"$ 	c #0A0A0A",
"% 	c #393939",
"& 	c #A2A2A2",
"* 	c #B3B3B3",
"= 	c #0B0B0B",
"- 	c #151515",
"; 	c #858585",
"> 	c #5D5D5D",
", 	c #AFAFAF",
"' 	c #323232",
") 	c #9E9E9E",
"! 	c #9D9D9D",
"~ 	c #313131",
"{ 	c #111111",
"] 	c #7E7E7E",
"^ 	c #7D7D7D",
"/ 	c #565656",
"( 	c #ADADAD",
"_ 	c #545454",
": 	c #2A2A2A",
"< 	c #999999",
"[ 	c #989898",
"} 	c #292929",
"| 	c #0E0E0E",
"1 	c #777777",
"2 	c #757575",
"3 	c #4D4D4D",
"4 	c #ABABAB",
"5 	c #A9A9A9",
"6 	c #4B4B4B",
"7 	c #242424",
"8 	c #939393",
"9 	c #929292",
"0 	c #222222",
"a 	c #6F6F6F",
"b 	c #B2B2B2",
"c 	c #6D6D6D",
"d 	c #454545",
"e 	c #A7A7A7",
"f 	c #B1B1B1",
"g 	c #8C8C8C",
"h 	c #A1A1A1",
"i 	c #A6A6A6",
"j 	c #424242",
"k 	c #1D1D1D",
"l 	c #8E8E8E",
"m 	c #414141",
"n 	c #101010",
"o 	c #2E2E2E",
"p 	c #8B8B8B",
"q 	c #1B1B1B",
"r 	c #686868",
"s 	c #373737",
"t 	c #A8A8A8",
"u 	c #141414",
"v 	c #3C3C3C",
"w 	c #515151",
"x 	c #646464",
"y 	c #3D3D3D",
"z 	c #A3A3A3",
"A 	c #9F9F9F",
"B 	c #000000",
"C 	c #9A9A9A",
"D 	c #838383",
"E 	c #010101",
"F 	c #888888",
"G 	c #6E6E6E",
"H 	c #030303",
"I 	c #2B2B2B",
"J 	c #4A4A4A",
"K 	c #0D0D0D",
"L 	c #181818",
"M 	c #363636",
"N 	c #212121",
"O 	c #1F1F1F",
"P 	c #202020",
"Q 	c #232323",
"R 	c #262626",
"S 	c #272727",
"T 	c #282828",
"U 	c #979797",
"V 	c #ACACAC",
"W 	c #191919",
"X 	c #484848",
"Y 	c #3E3E3E",
"Z 	c #949494",
"` 	c #7F7F7F",
" .	c #6B6B6B",
"..	c #353535",
"+.	c #919191",
"@.	c #7C7C7C",
"#.	c #A4A4A4",
"$.	c #2C2C2C",
"%.	c #8A8A8A",
"&.	c #070707",
"*.	c #050505",
"=.	c #060606",
"                                                          . .                                                           ",
"                                                      + @ # # @                                                         ",
"                                                    $ % & * * & % $                                                     ",
"                                                = - ; * * * * * * ; - =                                                 ",
"                                              + > , * * * * * * * * , > +                                               ",
"                                          $ ' ) * * * * * * * * * * * * ! ~ $                                           ",
"                                      . { ] * * * * * * * * * * * * * * * * ^ { =                                       ",
"                                    + / ( * * * * * * * * * * * * * * * * * * ( _ +                                     ",
"                                = : < * * * * * * * * * * * * * * * * * * * * * * [ } =                                 ",
"                            = | 1 * * * * * * * * * * * * * * * * * * * * * * * * * * 2 . $                             ",
"                          @ 3 4 * * * * * * * * * * * * * * * * * * * * * * * * * * * * 5 6 @                           ",
"                      = 7 8 * * * * * * * * * * * * * * * * * * * * * * * * * * * * * * * * 9 0 =                       ",
"                  $ $ a b * * * * * * * * * * * * * * * * * * * * * * * * * * * * * * * * * * b c $ @                   ",
"                @ d e * * * * * * * * * * * * * * * * * * * f g ! * * * * * h g ( * * * * * * * * i j @                 ",
"            . k l * * * * * * * * * * * * * * * * * * * * * * m n i * * * ( k o b * * * * * * * * * * p q .             ",
"        @ @ r b * * * * * * * * * * * * * * * i s & * * * * * t u v * * * w $ ! * * * * * * * * * * * * f x + +         ",
"      @ y z * * * * * * * * * * * * * * * * * A B C * * * * * * D E 2 * F E G * * * * * * * * * * * * * * * h % @       ",
"  H B . } } } } } } } } } } } } } I A * * * * A B C * * * * * * * J K < L M * * * ! N O P P N N 0 Q 7 7 R R S T = B E   ",
"                                  $ U * * * * A B C * * * * * * * V W @ | z * * * U =                                   ",
"                                  | U C X X X m B Y X X X Z * * * * ` B  .* * * * U |                                   ",
"                                  | U [ y y y s B ..y y y +.* * * * +.B @.* * * * U |                                   ",
"                                  | U * * * * A B C * * * * * * * * +.B @.* * * * U |                                   ",
"                                  | U * * * * A B C * * * * * * * * +.B @.* * * * U |                                   ",
"                                  | U * * * * A B C * * * * * * * * +.B @.* * * * U |                                   ",
"                                  | U * * * * #.$.h * * * * * * * * < $.%.* * * * U |                                   ",
"                                  | U * * * * * * * * * * * * * * * * * * * * * * U |                                   ",
"                                  | U * * * * * * * * * * * * * * * * * * * * * * U |                                   ",
"                                  | U * * * * * * * * * * * * * * * * * * * * * * U |                                   ",
"                                  | U * * * * * * * * * * * * * * * * * * * * * * U |                                   ",
"                                  | U * * * * * * * * * * * * * * * * * * * * * * U |                                   ",
"                                  | U * * * * * * * * * * * * * * * * * * * * * * U |                                   ",
"                                  | U * * * * * * * * * * * * * * * * * * * * * * U |                                   ",
"                                  | U * * * * * * * * * * * * * * * * * * * * * * U |                                   ",
"                                  | U * * * * * * * * * * * * * * * * * * * * * * U |                                   ",
"                                  | U * * * * * * * * * * * * * * * * * * * * * * U |                                   ",
"                                  | U * * * * * * * * * * * * * * * * * * * * * * U |                                   ",
"                                  | U * * * * * * * * * * * * * * * * * * * * * * U |                                   ",
"                                  &.*.=.=.=.=.=.=.=.=.=.=.=.=.=.=.=.=.=.=.=.=.=.=.*.&.                                  "};
