/* XPM */
const char * accelX_neg_xpm[] = {
"38 60 102 2",
"  	c None",
". 	c #030303",
"+ 	c #000000",
"@ 	c #0C0C0C",
"# 	c #090909",
"$ 	c #292929",
"% 	c #3D3D3D",
"& 	c #A3A3A3",
"* 	c #B3B3B3",
"= 	c #686868",
"- 	c #B2B2B2",
"; 	c #1D1D1D",
"> 	c #8E8E8E",
", 	c #454545",
"' 	c #0A0A0A",
") 	c #A7A7A7",
"! 	c #6F6F6F",
"~ 	c #0B0B0B",
"{ 	c #242424",
"] 	c #939393",
"^ 	c #4D4D4D",
"/ 	c #ABABAB",
"( 	c #0E0E0E",
"_ 	c #777777",
": 	c #060606",
"< 	c #2B2B2B",
"[ 	c #2A2A2A",
"} 	c #050505",
"| 	c #979797",
"1 	c #9F9F9F",
"2 	c #999999",
"3 	c #080808",
"4 	c #565656",
"5 	c #ADADAD",
"6 	c #111111",
"7 	c #7E7E7E",
"8 	c #323232",
"9 	c #9E9E9E",
"0 	c #7A7A7A",
"a 	c #8A8A8A",
"b 	c #767676",
"c 	c #959595",
"d 	c #5D5D5D",
"e 	c #5C5C5C",
"f 	c #525252",
"g 	c #A0A0A0",
"h 	c #AFAFAF",
"i 	c #151515",
"j 	c #B0B0B0",
"k 	c #232323",
"l 	c #8D8D8D",
"m 	c #020202",
"n 	c #6E6E6E",
"o 	c #858585",
"p 	c #040404",
"q 	c #646464",
"r 	c #333333",
"s 	c #393939",
"t 	c #414141",
"u 	c #A2A2A2",
"v 	c #1F1F1F",
"w 	c #656565",
"x 	c #AEAEAE",
"y 	c #676767",
"z 	c #0D0D0D",
"A 	c #B1B1B1",
"B 	c #303030",
"C 	c #515151",
"D 	c #9D9D9D",
"E 	c #949494",
"F 	c #919191",
"G 	c #6D6D6D",
"H 	c #010101",
"I 	c #8C8C8C",
"J 	c #505050",
"K 	c #191919",
"L 	c #4F4F4F",
"M 	c #A1A1A1",
"N 	c #8B8B8B",
"O 	c #2C2C2C",
"P 	c #878787",
"Q 	c #ACACAC",
"R 	c #363636",
"S 	c #616161",
"T 	c #313131",
"U 	c #7D7D7D",
"V 	c #545454",
"W 	c #989898",
"X 	c #070707",
"Y 	c #212121",
"Z 	c #757575",
"` 	c #202020",
" .	c #A9A9A9",
"..	c #4B4B4B",
"+.	c #929292",
"@.	c #222222",
"#.	c #A6A6A6",
"$.	c #424242",
"%.	c #262626",
"&.	c #1B1B1B",
"*.	c #272727",
"=.	c #282828",
"                                                                            ",
"                                        .                                   ",
"                                        +                                   ",
"                                        @ #                                 ",
"                                        $ % #                               ",
"                                        $ & #                               ",
"                                        $ * = @                             ",
"                                        $ * - ;                             ",
"                                        $ * * > #                           ",
"                                        $ * * * , '                         ",
"                                        $ * * * ) '                         ",
"                                        $ * * * * ! ~                       ",
"                                        $ * * * * - {                       ",
"                                        $ * * * * * ] #                     ",
"                                        $ * * * * * * ^ ~                   ",
"                                        $ * * * * * * / (                   ",
"                                        $ * * * * * * * _ ~                 ",
": ~ ~ ~ ~ ~ ~ ~ ~ ~ ~ ~ ~ ~ ~ ~ ~ ~ ~ # < * * * * * * * * [                 ",
"} | | | | | | | | | | | | | | | | | | | 1 * * * * * * * * 2 3               ",
": * * * * * * * * * * * * * * * * * * * * * * * * * * * * * 4 @             ",
": * * * * * * * * * * * * * * * * * * * * * * * * * * * * * 5 6             ",
": * * * * * * * * * * * * * * * * * * * * * * * * * * * * * * 7 '           ",
": * * * * * * * * * * * * * * * * * * * * * * * * * * * * * * * 8           ",
": * * * * * * * * * * * * * * * * * * * * * * * * * * * * * * * 9 3         ",
": * * * * * * * * * * * * * * * * 0 a * * * * 5 b c * * * * * * * d ~       ",
": * * * * * * * * * * * * * * * * e : 2 * * * f ~ g * * * * * * * h i       ",
": * * * * * * * * * * * * * * * * j k $ - * l m n * * * * * * * * * o '     ",
": * * * * * * * * * * * * * * * * * ] p q h ; r * * * * * * * * * * * s 3   ",
": * * * * * * * * * * * * * * * * * * e : t ' 1 * * * * * * * * * * * u #   ",
": * * * * * * * * * * * * * * * * * * j v + n * * * * * * * * * * * * * w @ ",
": * * * * * * * * * * * x 5 5 5 * * * 9 # + y * * * * * * * * * * * * * w @ ",
": * * * * * * * * * * * z + + + A * * B ; C 3 D * * * * * * * * * * * u #   ",
": * * * * * * * * * * * E F F F * * G H I x ; B * * * * * * * * * * * s     ",
": * * * * * * * * * * * * * * * * 1 ' J * * I H n * * * * * * * * * o '     ",
": * * * * * * * * * * * * * * * * r K 5 * * * L ~ M * * * * * * * h i       ",
": * * * * * * * * * * * * * * * N O P * * * * Q R S * * * * * * * d ~       ",
": * * * * * * * * * * * * * * * * * * * * * * * * * * * * * * * D 3         ",
": * * * * * * * * * * * * * * * * * * * * * * * * * * * * * * * T           ",
": * * * * * * * * * * * * * * * * * * * * * * * * * * * * * * U '           ",
": * * * * * * * * * * * * * * * * * * * * * * * * * * * * * 5 6             ",
": * * * * * * * * * * * * * * * * * * * * * * * * * * * * * V ~             ",
"p F F F F F F F F F F F F F F F F F F F 2 * * * * * * * * W 3               ",
"X ( ( ( ( ( ( ( ( ( ( ( ( ( ( ( ( ( ( ~ Y * * * * * * * * $                 ",
"                                        v * * * * * * * Z ~                 ",
"                                        ` * * * * * *  .@                   ",
"                                        ` * * * * * * ..'                   ",
"                                        Y * * * * * +.#                     ",
"                                        Y * * * * - @.                      ",
"                                        @.* * * * G ~                       ",
"                                        k * * * #.'                         ",
"                                        { * * * $.#                         ",
"                                        { * * N #                           ",
"                                        %.* A &.                            ",
"                                        %.* q @                             ",
"                                        *.M 3                               ",
"                                        =.s 3                               ",
"                                        ~ #                                 ",
"                                        +                                   ",
"                                        H                                   ",
"                                                                            "};
