/* XPM */
const char * accelX_pos_xpm[] = {
"40 57 110 2",
"  	c None",
". 	c #838383",
"+ 	c #888888",
"@ 	c #868686",
"# 	c #808080",
"$ 	c #858585",
"% 	c #818181",
"& 	c #828282",
"* 	c #9C9C9C",
"= 	c #8C8C8C",
"- 	c #B0B0B0",
"; 	c #919191",
"> 	c #7F7F7F",
", 	c #ADADAD",
"' 	c #BBBBBB",
") 	c #ACACAC",
"! 	c #C1C1C1",
"~ 	c #A3A3A3",
"{ 	c #C0C0C0",
"] 	c #BABABA",
"^ 	c #A2A2A2",
"/ 	c #C2C2C2",
"( 	c #B1B1B1",
"_ 	c #7D7D7D",
": 	c #BFBFBF",
"< 	c #949494",
"[ 	c #A7A7A7",
"} 	c #A5A5A5",
"| 	c #A6A6A6",
"1 	c #AEAEAE",
"2 	c #8D8D8D",
"3 	c #C5C5C5",
"4 	c #929292",
"5 	c #C4C4C4",
"6 	c #C7C7C7",
"7 	c #898989",
"8 	c #848484",
"9 	c #9B9B9B",
"0 	c #020202",
"a 	c #222222",
"b 	c #232323",
"c 	c #010101",
"d 	c #CDCDCD",
"e 	c #909090",
"f 	c #000000",
"g 	c #595959",
"h 	c #5E5E5E",
"i 	c #A4A4A4",
"j 	c #B9B9B9",
"k 	c #6F6F6F",
"l 	c #C3C3C3",
"m 	c #999999",
"n 	c #686868",
"o 	c #BEBEBE",
"p 	c #3B3B3B",
"q 	c #030303",
"r 	c #A1A1A1",
"s 	c #ABABAB",
"t 	c #080808",
"u 	c #343434",
"v 	c #BDBDBD",
"w 	c #939393",
"x 	c #B4B4B4",
"y 	c #0A0A0A",
"z 	c #1D1D1D",
"A 	c #202020",
"B 	c #050505",
"C 	c #B2B2B2",
"D 	c #9D9D9D",
"E 	c #878787",
"F 	c #989898",
"G 	c #A0A0A0",
"H 	c #8A8A8A",
"I 	c #C6C6C6",
"J 	c #CFCFCF",
"K 	c #CECECE",
"L 	c #CACACA",
"M 	c #696969",
"N 	c #4A4A4A",
"O 	c #C9C9C9",
"P 	c #B8B8B8",
"Q 	c #4D4D4D",
"R 	c #5A5A5A",
"S 	c #7C7C7C",
"T 	c #C8C8C8",
"U 	c #959595",
"V 	c #B5B5B5",
"W 	c #292929",
"X 	c #131313",
"Y 	c #D7D7D7",
"Z 	c #CCCCCC",
"` 	c #424242",
" .	c #060606",
"..	c #0B0B0B",
"+.	c #333333",
"@.	c #A8A8A8",
"#.	c #727272",
"$.	c #777777",
"%.	c #7B7B7B",
"&.	c #676767",
"*.	c #CBCBCB",
"=.	c #3C3C3C",
"-.	c #3D3D3D",
";.	c #8E8E8E",
">.	c #BCBCBC",
",.	c #D3D3D3",
"'.	c #D1D1D1",
").	c #969696",
"!.	c #7E7E7E",
"~.	c #8B8B8B",
"                                              . +                               ",
"                                              @ @                               ",
"                                              # # $                             ",
"                                              # # #                             ",
"                                              # # # %                           ",
"                                              # # # # #                         ",
"                                              # & $ # &                         ",
"                                              # & * % # =                       ",
"                                              # % - ; > >                       ",
"                                              # % , ' # # .                     ",
"                                              # % ) ! ~ > # $                   ",
"                                              # % ) { ] + # #                   ",
"                                              # % ) { ! ^ > #                   ",
"                                            # # % ) { { / @ > #                 ",
"  $ # # # # # # # # # # # # # # # # # # # # # # + , { { ! ( _ # @               ",
"# # # # # # # # # # # # # # # # # # # # # # > @ & ( { { { : < > &               ",
"# > + [ } } } } } } } } } } } } } } } } } } } | 1 ! { { { { - & # &             ",
"# > 2 3 ! ! ! ! ! ! ! ! ! ! ! ! ! ! ! ! ! ! ! ! ! { { { { { ! 4 > %             ",
"# > 2 5 { { { { { { { { { { { { { { { { { { { { { { { { { { ! ' > # &           ",
"# > 2 5 { { { { { { { { { { { { { { { { { { { { { { { { { { { / ^ _ #           ",
"# > 2 5 { { { { { { { { { { / 6 3 { { { { { { 3 6 / { { { { { { ' 7 # 8         ",
"# > 2 5 { { { { { { { { { { 9 0 a ' { { { { ' b c 9 { { { { { { ! ~ # #         ",
"# > 2 5 { { { { / d { { { { 5 e f g ! { { ! h f 2 5 { { { { { { { : @ # .       ",
"# > 2 5 { { { { i f j { { { { 5 k f e l / m f n 3 { { { { { { { { ! - _ > 7     ",
"# > 2 5 { { { { } f j { { { { { o p q r s t u v { { { { { { { { { { / w > #     ",
"# > 2 5 { { { { } f j { { { { { ! x y z A B 1 ! { { { { { { { { { { { C . # #   ",
"# > 2 5 / D D D E f F D D G / { { 5 D f f H I { { { { { { { { { { { { { < # #   ",
"# > 2 5 J f f f f q f f f f K { { L M f f N O { { { { { { { { { { { { ! P # > @ ",
"# > 2 5 { { { { } f j { { { { { ! e q Q R c S / { { { { { { { { { { { { T ~ & U ",
"# > 2 5 { { { { } f j { { { { { V z A { I W X 1 { { { { { { { { { { { { Y % > E ",
"# > 2 5 { { { { } f j { { { { Z `  .) / ! - ..+.Z { { { { { { { { { { L i # #   ",
"# > 2 5 { { { { @.f ] { { { 5 #.f $.{ { { { %.f &.5 { { { { { { { { : 6 + # #   ",
"# > 2 5 { { { { ! *.{ { { { e f =.{ { { { { ! -.f ;.{ { { { { { { : *.@._ #     ",
"# > 2 5 { { { { { { { { { { v P >.{ { { { { { >.P v { { { { { { { : ,.%.> +     ",
"# > 2 5 { { { { { { { { { { { { { { { { { { { { { { { { { { { { { '.= > .       ",
"# > 2 5 { { { { { { { { { { { { { { { { { { { { { { { { { { { { l V # #         ",
"# > 2 5 { { { { { { { { { { { { { { { { { { { { { { { { { { { { 5 ).# 8         ",
"# > 2 5 { { { { { { { { { { { { { { { { { { { { { { { { { { { / o S #           ",
"# > 2 5 { { { { { { { { { { { { { { { { { { { { { { { { { { : Y > # &           ",
"# > = { v v v v v v v v v v v v v v v v v v v v : { { { { { T ^ !.%             ",
"> > . ;.;.;.;.;.;.;.;.;.;.;.;.;.;.;.;.;.;.;.2 4 < ' { { { { : 8 # &             ",
"  @ # # # # # # # # # # # # # # # # # # # # # . e - { { { { @.> %               ",
"  8 # # # # # # # # # # # # # # # # # # # # # # # ) { { : O !.# @               ",
"                                              # % ) { : J 2 > >                 ",
"                                              # % ) { / V !.#                   ",
"                                              # % ) { ! ;.# #                   ",
"                                              # % ) { P !.# 8                   ",
"                                              # % s T E > .                     ",
"                                              # % C r _ >                       ",
"                                              # & s % # ~.                      ",
"                                              # & + # &                         ",
"                                              # # % # #                         ",
"                                              # # # #                           ",
"                                              # # #                             ",
"                                              # # 8                             ",
"                                              @ @                               ",
"                                              & @                               "};
