/* XPM */
const char * accelY_neg_xpm[] = {
"57 33 106 2",
"  	c None",
". 	c #838383",
"+ 	c #808080",
"@ 	c #848484",
"# 	c #8F8F8F",
"$ 	c #818181",
"% 	c #868686",
"& 	c #9B9B9B",
"* 	c #9A9A9A",
"= 	c #A0A0A0",
"- 	c #7E7E7E",
"; 	c #7F7F7F",
"> 	c #8C8C8C",
", 	c #B5B5B5",
"' 	c #B3B3B3",
") 	c #BEBEBE",
"! 	c #7C7C7C",
"~ 	c #B4B4B4",
"{ 	c #B1B1B1",
"] 	c #303030",
"^ 	c #484848",
"/ 	c #BCBCBC",
"( 	c #242424",
"_ 	c #7D7D7D",
": 	c #737373",
"< 	c #000000",
"[ 	c #777777",
"} 	c #ADADAD",
"| 	c #111111",
"1 	c #B9B9B9",
"2 	c #474747",
"3 	c #010101",
"4 	c #AEAEAE",
"5 	c #BABABA",
"6 	c #232323",
"7 	c #181818",
"8 	c #B6B6B6",
"9 	c #212121",
"0 	c #1C1C1C",
"a 	c #626262",
"b 	c #898989",
"c 	c #959595",
"d 	c #515151",
"e 	c #9F9F9F",
"f 	c #676767",
"g 	c #B8B8B8",
"h 	c #7B7B7B",
"i 	c #0C0C0C",
"j 	c #353535",
"k 	c #989898",
"l 	c #979797",
"m 	c #434343",
"n 	c #A6A6A6",
"o 	c #C1C1C1",
"p 	c #5C5C5C",
"q 	c #BFBFBF",
"r 	c #B2B2B2",
"s 	c #C0C0C0",
"t 	c #5B5B5B",
"u 	c #878787",
"v 	c #858585",
"w 	c #565656",
"x 	c #828282",
"y 	c #888888",
"z 	c #949494",
"A 	c #A5A5A5",
"B 	c #A3A3A3",
"C 	c #A4A4A4",
"D 	c #ABABAB",
"E 	c #A2A2A2",
"F 	c #D0D0D0",
"G 	c #A7A7A7",
"H 	c #C6C6C6",
"I 	c #DEDEDE",
"J 	c #909090",
"K 	c #B0B0B0",
"L 	c #C5C5C5",
"M 	c #E7E7E7",
"N 	c #8E8E8E",
"O 	c #9D9D9D",
"P 	c #C3C3C3",
"Q 	c #D9D9D9",
"R 	c #BDBDBD",
"S 	c #E4E4E4",
"T 	c #8B8B8B",
"U 	c #DBDBDB",
"V 	c #CBCBCB",
"W 	c #939393",
"X 	c #C9C9C9",
"Y 	c #EDEDED",
"Z 	c #929292",
"` 	c #8A8A8A",
" .	c #919191",
"..	c #AFAFAF",
"+.	c #CECECE",
"@.	c #E0E0E0",
"#.	c #9E9E9E",
"$.	c #DFDFDF",
"%.	c #A1A1A1",
"&.	c #B7B7B7",
"*.	c #F2F2F2",
"=.	c #D3D3D3",
"-.	c #8D8D8D",
";.	c #D2D2D2",
">.	c #E9E9E9",
",.	c #AAAAAA",
"                              . + + + + + + + + + + + + + + + + + + + + + + + + + @ #                             ",
"                            $ + + + + + + + + + + + + + + + + + + + + + + + + + + + +                             ",
"                            + + % & * * * * * * * * * * * * * * * * * * * * * * = - ;                             ",
"                            + ; > , ' ' ' ' ' ' ' ' ' ' ' ' ' ' ' ' ' ' ' ' ' ' ) ! ;                             ",
"                            + ; > , ' ' ' ' ' ' ' ' ' ' ' ' ' ' ' ' ' ' ' ' ' ' ) ! ;                             ",
"                            + ; > , ' ' ' ' ' ' ' , , ' ' ' ' ' ' ~ , ~ ' ' ' ' ) ! ;                             ",
"                            + ; > , ' ' ' ' ' ' { ] ^ / ' ' ' ' ' % ( _ ' ' ' ' ) ! ;                             ",
"                            + ; > , ' ' ' ' ' ' ' : < [ ' ' ' ~ } | ] / ' ' ' ' ) ! ;                             ",
"                            + ; > , ' ' ' ' ' ' ' 1 2 3 4 ' ' 5 6 7 } ' ' ' ' ' ) ! ;                             ",
"                            + ; > , ' ' ' ' ' ' ' ' 8 9 0 { ~ a < b ' ' ' ' ' ' ) ! ;                             ",
"                            + ; > , ' ' ' ' ' ' ' ' ' c 3 d e < f g ' ' ' ' ' ' ) ! ;                             ",
"                            + ; > , ' ' ' ' ' ' ' ' ' g h < i j , ' ' ' ' ' ' ' ) ! ;                             ",
"                            + ; > , ' , k k k l ' ' ' ' ~ m < n ' ' ' ' ' ' ' ' ) ! ;                             ",
"                            + ; > , ' o < < < < 8 ' ' ' ' p < q ' ' ' ' ' ' ' ' ) ! ;                             ",
"                            + ; > , ' r o s s o ' ' ' ' ' t < q ' ' ' ' ' ' ' ' ) ! ;                             ",
"                            + ; > , ' ' ' ' ' ' ' ' ' ' ' t < q ' ' ' ' ' ' ' ' ) ! ;                             ",
"  u @ v v v v v v v v v v v + ; > , ' ' ' ' ' ' ' ' ' ' ' w < q ' ' ' ' ' ' ' ' , ! + x v v v v v v v v v v % y   ",
"@ . + + + + + + + + + + + + + v z , ' ' ' ' ' ' ' ' ' ' ' 8 1 ' ' ' ' ' ' ' ' ' , u $ + + + + + + + + + + + + + > ",
"    + + + ; z A B B B B B B B C { ' ' ' ' ' ' ' ' ' ' ' ' ' ' ' ' ' ' ' ' ' ' ' ' D B B B B B B E E F G + + + x   ",
"      . $ + - # 4 ' ' ' ' ' ' ' ' ' ' ' ' ' ' ' ' ' ' ' ' ' ' ' ' ' ' ' ' ' ' ' ' ' ' ' ' ' ' ~ H I z h + + u     ",
"          + ; + $ J ' ~ ' ' ' ' ' ' ' ' ' ' ' ' ' ' ' ' ' ' ' ' ' ' ' ' ' ' ' ' ' ' ' ' ' K L M & x ; ; N         ",
"              x + ; + O { ~ ' ' ' ' ' ' ' ' ' ' ' ' ' ' ' ' ' ' ' ' ' ' ' ' ' ' ' ' ' { P Q R _ ; + +             ",
"                  + + + x C ~ ' ' ' ' ' ' ' ' ' ' ' ' ' ' ' ' ' ' ' ' ' ' ' ' ' ' ' r S s + + + +                 ",
"                    $ x + _ T n , ' ' ' ' ' ' ' ' ' ' ' ' ' ' ' ' ' ' ' ' ' ' { , U V W _ + x                     ",
"                        . + + - > 4 ' ' ' ' ' ' ' ' ' ' ' ' ' ' ' ' ' ' ' ' , X Y Z - + $ +                       ",
"                            ` ; ; x  .K ~ ' ' ' ' ' ' ' ' ' ' ' ' ' ' ' ..+.@.B ; ; + v                           ",
"                                + + + + #.{ ~ ' ' ' ' ' ' ' ' ' ' ' r o $.s h ; + x                               ",
"                                    + + + @ %., ' ' ' ' ' ' ' ' r &.*./ u ; + @                                   ",
"                                      @ + + - T n ~ ' ' ' ' { 5 U =.-.h ; $ .                                     ",
"                                          % + + + T r ' ' { ;.>.` + + ;  .                                        ",
"                                              $ + ; + W V $.,._ ; +                                               ",
"                                                  + + + ! ! + + +                                                 ",
"                                                      x v u $                                                     "};
