/* XPM */
const char * accelY_pos_xpm[] = {
"57 33 83 1",
" 	c None",
".	c #888888",
"+	c #818181",
"@	c #808080",
"#	c #828282",
"$	c #7F7F7F",
"%	c #898989",
"&	c #868686",
"*	c #8B8B8B",
"=	c #858585",
"-	c #7E7E7E",
";	c #8C8C8C",
">	c #AAAAAA",
",	c #B2B2B2",
"'	c #B0B0B0",
")	c #A3A3A3",
"!	c #8E8E8E",
"~	c #8D8D8D",
"{	c #A7A7A7",
"]	c #B6B6B6",
"^	c #B3B3B3",
"/	c #B4B4B4",
"(	c #B5B5B5",
"_	c #9D9D9D",
":	c #838383",
"<	c #8F8F8F",
"[	c #ADADAD",
"}	c #B1B1B1",
"|	c #A6A6A6",
"1	c #909090",
"2	c #A1A1A1",
"3	c #949494",
"4	c #AFAFAF",
"5	c #A9A9A9",
"6	c #8A8A8A",
"7	c #848484",
"8	c #939393",
"9	c #A5A5A5",
"0	c #7D7D7D",
"a	c #999999",
"b	c #979797",
"c	c #919191",
"d	c #9C9C9C",
"e	c #7C7C7C",
"f	c #6A6A6A",
"g	c #B7B7B7",
"h	c #696969",
"i	c #959595",
"j	c #ACACAC",
"k	c #000000",
"l	c #5C5C5C",
"m	c #B9B9B9",
"n	c #BABABA",
"o	c #535353",
"p	c #ABABAB",
"q	c #D0D0D0",
"r	c #9F9F9F",
"s	c #878787",
"t	c #545454",
"u	c #636363",
"v	c #6E6E6E",
"w	c #B8B8B8",
"x	c #202020",
"y	c #191919",
"z	c #151515",
"A	c #272727",
"B	c #9E9E9E",
"C	c #080808",
"D	c #404040",
"E	c #BFBFBF",
"F	c #3C3C3C",
"G	c #0D0D0D",
"H	c #737373",
"I	c #333333",
"J	c #030303",
"K	c #4D4D4D",
"L	c #424242",
"M	c #494949",
"N	c #BCBCBC",
"O	c #CCCCCC",
"P	c #C8C8C8",
"Q	c #C9C9C9",
"R	c #A8A8A8",
"                            .                            ",
"                         .+@+@+@                         ",
"                        #@$@%&$@$*                       ",
"                     =+@@-;>,')#$@+@                     ",
"                   !+@$+~{]^^^/(_.$@$&                   ",
"                 :+@@-<[,^^^^^^^/}|=-@+@                 ",
"               ~@@$#1>]^^^^^^^^^^^/]2*@$@:               ",
"             #+@@-34^^^^^^^^^^^^^^^^^,5%-@@@             ",
"           6$@-78[]^^^^^^^^^^^^^^^^^^^^(9~@$@+           ",
"         ++@@0a'^^^^^^^^^^^^^^^^^^^^^^^^^,[!-@@@         ",
"       .$@-=b'(^^^^^^^^^^^^^^^^^^^^^^^^^^^^(51@$@+       ",
"     +@@@$_}^^^^^^^^^^^^^^^^^^^^^^^^^^^^^^^^^^'c$@@@<    ",
"   =$@$%d/]((((((^^^^^^^^^]efg^^^^^/h$]^}/(((((g[i:$$+:  ",
" :@@@@~3iiiiii3;!j^^^^^^^^/|klm^^^nokp//qriiiiiiii3%@@@@;",
"s#@@@$$$$$$$$$$$+%]^^(t}^^^/uk*^^^7kv/^()%-$$$$$$$$$@@@@<",
" :@@@@@@@@@@@@@@@s]^^wk4^^^^mxy(^}zAw^^(B@@@@@@@@@@@@@@@1",
"               @@s]^^wk4^^^^/pCDEFG4^^^(B@;              ",
"               @@s(,,]k[,,,^^^HkIk-^^^^(B@*              ",
"               @@sfkkkJkkkK^^^mLkMw^^^^(B@*              ",
"               @@sgggNk,gg(^^^^,kw^^^^^(B@*              ",
"               @@s]^^wk4^^^^^^^'kg^^^^^(B@*              ",
"               @@s]^^wk4^^^^^^^'kg^^^^^(B@*              ",
"               @@s]^^(u}^^^^^^^'kg^^^^^(B@*              ",
"               @@s]^^^^^^^^^^^^}k]^^^^^(B@*              ",
"               @@s]^^^^^^^^^^^^^N^^^^^^(B@*              ",
"               @@s]^^^^^^^^^^^^^^^^^^^^(B@*              ",
"               @@s]^^^^^^^^^^^^^^^^^^^^(B@*              ",
"               @@s]^^^^^^^^^^^^^^^^^^^^(B@*              ",
"               @@s]^^^^^^^^^^^^^^^^^^^^(B@*              ",
"               @@s]^^^^^^^^^^^^^^^^^^^^(B@*              ",
"               @$%OPPPPPPPPPPPPPPPPPPPPQ)@*              ",
"               @@=pRRRRRRRRRRRRRRRRRRRRR!@*              ",
"                s@$$$$$$$$$$$$$$$$$$$$$$$.               "};
