/* XPM */
const char * accelY_neg_xpm[] = {
"60 38 97 2",
"  	c None",
". 	c #070707",
"+ 	c #050505",
"@ 	c #060606",
"# 	c #0E0E0E",
"$ 	c #979797",
"% 	c #B3B3B3",
"& 	c #ADADAD",
"* 	c #606060",
"= 	c #848484",
"- 	c #7E7E7E",
"; 	c #636363",
"> 	c #B0B0B0",
", 	c #4F4F4F",
"' 	c #0A0A0A",
") 	c #9E9E9E",
"! 	c #969696",
"~ 	c #5C5C5C",
"{ 	c #1C1C1C",
"] 	c #2F2F2F",
"^ 	c #B2B2B2",
"/ 	c #242424",
"( 	c #262626",
"_ 	c #B1B1B1",
": 	c #8E8E8E",
"< 	c #030303",
"[ 	c #686868",
"} 	c #5B5B5B",
"| 	c #989898",
"1 	c #585858",
"2 	c #777777",
"3 	c #040404",
"4 	c #666666",
"5 	c #AFAFAF",
"6 	c #232323",
"7 	c #000000",
"8 	c #2E2E2E",
"9 	c #AEAEAE",
"0 	c #8C8C8C",
"a 	c #919191",
"b 	c #7B7B7B",
"c 	c #888888",
"d 	c #0B0B0B",
"e 	c #0C0C0C",
"f 	c #292929",
"g 	c #2B2B2B",
"h 	c #9F9F9F",
"i 	c #9B9B9B",
"j 	c #1D1D1D",
"k 	c #808080",
"l 	c #8D8D8D",
"m 	c #9D9D9D",
"n 	c #212121",
"o 	c #1F1F1F",
"p 	c #202020",
"q 	c #222222",
"r 	c #272727",
"s 	c #282828",
"t 	c #010101",
"u 	c #090909",
"v 	c #3D3D3D",
"w 	c #A3A3A3",
"x 	c #A1A1A1",
"y 	c #393939",
"z 	c #646464",
"A 	c #080808",
"B 	c #8B8B8B",
"C 	c #1B1B1B",
"D 	c #454545",
"E 	c #A7A7A7",
"F 	c #9A9A9A",
"G 	c #595959",
"H 	c #A0A0A0",
"I 	c #A6A6A6",
"J 	c #424242",
"K 	c #6F6F6F",
"L 	c #6D6D6D",
"M 	c #939393",
"N 	c #929292",
"O 	c #4D4D4D",
"P 	c #ABABAB",
"Q 	c #A9A9A9",
"R 	c #4B4B4B",
"S 	c #757575",
"T 	c #2A2A2A",
"U 	c #999999",
"V 	c #565656",
"W 	c #545454",
"X 	c #111111",
"Y 	c #7D7D7D",
"Z 	c #323232",
"` 	c #313131",
" .	c #5D5D5D",
"..	c #151515",
"+.	c #858585",
"@.	c #A2A2A2",
"#.	c #656565",
"                                  . + @ @ @ @ @ @ @ @ @ @ @ @ @ @ @ @ @ @ @ @ @ @ + .                                   ",
"                                  # $ % % % % % % % % % % % % % % % % % % % % % % $ #                                   ",
"                                  # $ % % % % % % % % % % % % % % % % % % % % % % $ #                                   ",
"                                  # $ % % % % % % % % % % % % % % % % % % % % % % $ #                                   ",
"                                  # $ % % % % % % % % % % % % % % % % % % % % % % $ #                                   ",
"                                  # $ % % % % % % % % % % % % % % % % % % % % % % $ #                                   ",
"                                  # $ % % % % % % % % % % % % % % % % % % % % % % $ #                                   ",
"                                  # $ % % % % % % % % % % % % % % % % % % % % % % $ #                                   ",
"                                  # $ % % % % % % % % % % % % % % % % % % % % % % $ #                                   ",
"                                  # $ % % % % % % % % % % % % % % % % % % % % % % $ #                                   ",
"                                  # $ % % % % % % % % % % % % % % % % % % % % % % $ #                                   ",
"                                  # $ % % % % % % % % % % % % % % % % % % % % % % $ #                                   ",
"                                  # $ % % % % % % % % % % % % % % % % % % % % % % $ #                                   ",
"                                  # $ % % % % % % % & * = % % % % % - ; > % % % % $ #                                   ",
"                                  # $ % % % % % % % % , ' ) % % % ! + ~ % % % % % $ #                                   ",
"                                  # $ % % % % % % % % & { ] ^ % > / ( _ % % % % % $ #                                   ",
"                                  # $ % % % % % % % % % : < [ % } @ | % % % % % % $ #                                   ",
"                                  # $ % % % % % % % % % % 1 . 2 3 4 % % % % % % % $ #                                   ",
"                                  # $ % % % % % % % % % % 5 6 7 8 ^ % % % % % % % $ #                                   ",
"                                  ' $ % % % % 9 0 0 0 a % % b 7 c % % % % % % % % $ d                                   ",
"  < 7 e f f f f f f f f f f f f f g h % % % % i + + + j % % k 7 l % % % % % % % % m n o p p n n q 6 / / ( ( r s d 7 t   ",
"      u v w % % % % % % % % % % % % % % % % % % % % % % % % k 7 l % % % % % % % % % % % % % % % % % % % % % x y u       ",
"        u u [ ^ % % % % % % % % % % % % % % % % % % % % % % k 7 l % % % % % % % % % % % % % % % % % % % _ z A A         ",
"            e j : % % % % % % % % % % % % % % % % % % % % % k 7 l % % % % % % % % % % % % % % % % % % B C e             ",
"                u D E % % % % % % % % % % % % % % % % % % % F G H % % % % % % % % % % % % % % % % I J u                 ",
"                  ' ' K ^ % % % % % % % % % % % % % % % % % % % % % % % % % % % % % % % % % % ^ L ' u                   ",
"                      d / M % % % % % % % % % % % % % % % % % % % % % % % % % % % % % % % % N q d                       ",
"                          u O P % % % % % % % % % % % % % % % % % % % % % % % % % % % % Q R u                           ",
"                            d # 2 % % % % % % % % % % % % % % % % % % % % % % % % % % S e '                             ",
"                                d T U % % % % % % % % % % % % % % % % % % % % % % | f d                                 ",
"                                    A V & % % % % % % % % % % % % % % % % % % & W A                                     ",
"                                      e X - % % % % % % % % % % % % % % % % Y X d                                       ",
"                                          ' Z ) % % % % % % % % % % % % m ` '                                           ",
"                                              A  .5 % % % % % % % % 5  .A                                               ",
"                                                d ..+.% % % % % % +...d                                                 ",
"                                                    ' y @.% % @.y '                                                     ",
"                                                      A u #.#.u                                                         ",
"                                                          e e                                                           "};
