/* XPM */
const char * inspect_xpm[] = {
"32 32 365 2",
"  	c None",
". 	c #B6B6B6",
"+ 	c #939393",
"@ 	c #8C8C8C",
"# 	c #959595",
"$ 	c #B4B4B4",
"% 	c #AEAEAE",
"& 	c #B3B3B3",
"* 	c #C3C3C3",
"= 	c #DADADA",
"- 	c #F0F0F0",
"; 	c #F9F9F9",
"> 	c #F2F2F2",
", 	c #DFDFDF",
"' 	c #C7C7C7",
") 	c #B8B8B8",
"! 	c #BDBDBD",
"~ 	c #AFAFAF",
"{ 	c #B2B2B2",
"] 	c #E1E1E1",
"^ 	c #FFFFFF",
"/ 	c #EEEEEE",
"( 	c #D4D4D4",
"_ 	c #C2C2C2",
": 	c #C4C4C4",
"< 	c #D3D3D3",
"[ 	c #E8E8E8",
"} 	c #E5E5E5",
"| 	c #A6A6A6",
"1 	c #CFCFCF",
"2 	c #DCDCDC",
"3 	c #A0A0A0",
"4 	c #8E8E8E",
"5 	c #757575",
"6 	c #515151",
"7 	c #464646",
"8 	c #545454",
"9 	c #848484",
"0 	c #9D9D9D",
"a 	c #D1D1D1",
"b 	c #F8F8F8",
"c 	c #D8D8D8",
"d 	c #BCBCBC",
"e 	c #A8A8A8",
"f 	c #E2E2E2",
"g 	c #FCFCFC",
"h 	c #9E9E9E",
"i 	c #636363",
"j 	c #222222",
"k 	c #070707",
"l 	c #080808",
"m 	c #000000",
"n 	c #141414",
"o 	c #020202",
"p 	c #232323",
"q 	c #646464",
"r 	c #9A9A9A",
"s 	c #E9E9E9",
"t 	c #E0E0E0",
"u 	c #9F9F9F",
"v 	c #7C7C7C",
"w 	c #262626",
"x 	c #060606",
"y 	c #010101",
"z 	c #343434",
"A 	c #797979",
"B 	c #D7D7D7",
"C 	c #B5B5B5",
"D 	c #828282",
"E 	c #3B3B3B",
"F 	c #727272",
"G 	c #DBDBDB",
"H 	c #CBCBCB",
"I 	c #9FA0A1",
"J 	c #F0F1F2",
"K 	c #989899",
"L 	c #3B7F3B",
"M 	c #008700",
"N 	c #008200",
"O 	c #008800",
"P 	c #004B00",
"Q 	c #000300",
"R 	c #000400",
"S 	c #003800",
"T 	c #007900",
"U 	c #008300",
"V 	c #007E00",
"W 	c #004500",
"X 	c #000800",
"Y 	c #3E3E3E",
"Z 	c #909091",
"` 	c #C9C9CA",
" .	c #B7B7B8",
"..	c #4A4A4A",
"+.	c #D3D4D6",
"@.	c #C3C4C6",
"#.	c #7B877C",
"$.	c #0CA30B",
"%.	c #00BF00",
"&.	c #00C100",
"*.	c #00B900",
"=.	c #00E000",
"-.	c #000D00",
";.	c #001600",
">.	c #009A00",
",.	c #00C500",
"'.	c #00C000",
").	c #00C200",
"!.	c #00AB00",
"~.	c #002B00",
"{.	c #191919",
"].	c #575759",
"^.	c #ADADAF",
"/.	c #B0B0B3",
"(.	c #9F9FA1",
"_.	c #000700",
":.	c #005700",
"<.	c #006900",
"[.	c #006D00",
"}.	c #002800",
"|.	c #000100",
"1.	c #010401",
"2.	c #717273",
"3.	c #DCDDDF",
"4.	c #97989A",
"5.	c #269F28",
"6.	c #007600",
"7.	c #001000",
"8.	c #001100",
"9.	c #004600",
"0.	c #00F900",
"a.	c #000F00",
"b.	c #001A00",
"c.	c #00C900",
"d.	c #006400",
"e.	c #001200",
"f.	c #001500",
"g.	c #003500",
"h.	c #00E300",
"i.	c #003300",
"j.	c #7A7A7C",
"k.	c #717173",
"l.	c #88888A",
"m.	c #4D4D4E",
"n.	c #000E00",
"o.	c #007200",
"p.	c #008400",
"q.	c #007F00",
"r.	c #000600",
"s.	c #252B25",
"t.	c #9A9B9E",
"u.	c #B7B8BA",
"v.	c #87888A",
"w.	c #15D716",
"x.	c #007A00",
"y.	c #003E00",
"z.	c #00F800",
"A.	c #00CF00",
"B.	c #005A00",
"C.	c #002400",
"D.	c #00ED00",
"E.	c #003200",
"F.	c #59595B",
"G.	c #19191B",
"H.	c #000900",
"I.	c #3A403A",
"J.	c #A9AAAE",
"K.	c #9FA0A2",
"L.	c #6F7171",
"M.	c #00FF00",
"N.	c #007C00",
"O.	c #003F00",
"P.	c #686868",
"Q.	c #0E0E0E",
"R.	c #008100",
"S.	c #232423",
"T.	c #ADAEB3",
"U.	c #9A9B9D",
"V.	c #656666",
"W.	c #000B00",
"X.	c #00E900",
"Y.	c #001800",
"Z.	c #00BE00",
"`.	c #005200",
" +	c #002100",
".+	c #00D800",
"++	c #002F00",
"@+	c #212121",
"#+	c #004D00",
"$+	c #005E00",
"%+	c #005C00",
"&+	c #005D00",
"*+	c #202020",
"=+	c #A9AAAF",
"-+	c #909193",
";+	c #626464",
">+	c #006000",
",+	c #009900",
"'+	c #00B800",
")+	c #00B700",
"!+	c #00A500",
"~+	c #003100",
"{+	c #002A00",
"]+	c #001B00",
"^+	c #787878",
"/+	c #313131",
"(+	c #101010",
"_+	c #00A800",
":+	c #00C300",
"<+	c #000500",
"[+	c #1E1F1E",
"}+	c #98999C",
"|+	c #8D8E90",
"1+	c #6A6B6C",
"2+	c #002500",
"3+	c #009700",
"4+	c #009500",
"5+	c #009E00",
"6+	c #007300",
"7+	c #002D00",
"8+	c #007700",
"9+	c #797A79",
"0+	c #4F4E4E",
"a+	c #3C3A3B",
"b+	c #2B2B2B",
"c+	c #7F7F81",
"d+	c #89898B",
"e+	c #7D7D7F",
"f+	c #323B33",
"g+	c #003700",
"h+	c #00FD00",
"i+	c #00D700",
"j+	c #00F700",
"k+	c #797A7A",
"l+	c #6F6D6D",
"m+	c #6D6B6C",
"n+	c #008000",
"o+	c #323332",
"p+	c #39393B",
"q+	c #79797B",
"r+	c #454D46",
"s+	c #010801",
"t+	c #818181",
"u+	c #939191",
"v+	c #939192",
"w+	c #003900",
"x+	c #005500",
"y+	c #007B00",
"z+	c #131315",
"A+	c #1E1E1F",
"B+	c #727574",
"C+	c #0D140D",
"D+	c #838483",
"E+	c #9D9E9D",
"F+	c #A4A2A3",
"G+	c #ACABAB",
"H+	c #008B00",
"I+	c #008C00",
"J+	c #009200",
"K+	c #004400",
"L+	c #005000",
"M+	c #020502",
"N+	c #303330",
"O+	c #2A2A2A",
"P+	c #747475",
"Q+	c #323833",
"R+	c #010201",
"S+	c #004000",
"T+	c #005B00",
"U+	c #000200",
"V+	c #00EC00",
"W+	c #8F8F8F",
"X+	c #A8A9A8",
"Y+	c #131512",
"Z+	c #1F1F1F",
"`+	c #5B5B5D",
" @	c #78857A",
".@	c #05FB05",
"+@	c #00DC00",
"@@	c #00BC00",
"#@	c #001900",
"$@	c #00D400",
"%@	c #00EF00",
"&@	c #003C00",
"*@	c #555557",
"=@	c #AAAAAA",
"-@	c #ADADAD",
";@	c #565656",
">@	c #161616",
",@	c #2F2F30",
"'@	c #838385",
")@	c #6E796F",
"!@	c #126012",
"~@	c #003600",
"{@	c #003D00",
"]@	c #535454",
"^@	c #BEBEC0",
"/@	c #525253",
"(@	c #777677",
"_@	c #A7A6A8",
":@	c #717071",
"<@	c #363636",
"[@	c #505051",
"}@	c #B1B1B3",
"|@	c #BBBBBB",
"1@	c #929191",
"2@	c #8D8B8C",
"3@	c #A4A2A2",
"4@	c #C8C6C7",
"5@	c #8A8A8A",
"6@	c #9D9D9F",
"7@	c #C6C6C8",
"8@	c #B5B5B7",
"9@	c #B9B9BB",
"0@	c #B9B9B9",
"a@	c #ADABAC",
"b@	c #A19FA0",
"c@	c #A7A5A6",
"d@	c #BABABA",
"e@	c #A1A1A1",
"f@	c #98989A",
"g@	c #9D9DA0",
"h@	c #A0A0A2",
"i@	c #979799",
"j@	c #9A9A9C",
"k@	c #A4A4A6",
"l@	c #BABABC",
"m@	c #CECED0",
"n@	c #B7B7B9",
"o@	c #B1AFB0",
"p@	c #B3B1B2",
"q@	c #C1C1C2",
"r@	c #C0C0C1",
"s@	c #C8C8C9",
"t@	c #CCCCCE",
"u@	c #CDCDCF",
"v@	c #BBBBBD",
"w@	c #69696B",
"x@	c #5E5E60",
"y@	c #C0C0C0",
"z@	c #BEBEBE",
"A@	c #B0B0B0",
"B@	c #B2B2B3",
"C@	c #C6C6C7",
"D@	c #BABABB",
"E@	c #6B6B6C",
"F@	c #C8C8C8",
"G@	c #D0D0D0",
"H@	c #CACACA",
"I@	c #CDCDCD",
"J@	c #D6D6D6",
"K@	c #C6C6C6",
"L@	c #6A6A6A",
"M@	c #F7F7F7",
"N@	c #292929",
"O@	c #4C4C4C",
"P@	c #3C3C3C",
"Q@	c #181818",
"R@	c #616161",
"S@	c #7D7D7D",
"T@	c #2D2D2D",
"U@	c #CCCCCC",
"V@	c #383838",
"W@	c #111111",
"X@	c #090909",
"                                  . + @ # $                     ",
"                            % & * = - ; > , ' ) !               ",
"                        ~ { ] ^ / ( ' _ : < [ ^ } ! )           ",
"                      | 1 ^ 2 3 4 5 6 7 8 5 9 0 a b c d         ",
"                    e f g h i j k l m m m n o p q r s t !       ",
"                  u t > v w x y m m m m m m m y x z A ] B C     ",
"                r ' > D z m m m m m m m m m m m m m E F G H h   ",
"m m m m m m m n I J K L M N O P Q m R S T U U V W X m Y Z `  .  ",
"m m m m m m y ..+.@.#.$.%.&.*.=.-.m ;.>.,.'.'.).!.~.m {.].^./.(.",
"_.:.<.[.}.|.1.2.3.4.5.6.7.8.9.0.a.m b.c.d.e.f.g.h.i.m m j.k.l.m.",
"n.o.p.p.q.r.s.t.u.v.w.x.m m y.z.a.m b.A.B.m m C.D.E.m m   F.G.m ",
"H.|.m m q.X I.J.K.L.M.N.m m O.z.a.m b.A.B.m m C.D.E.m m   P.Q.m ",
"H.R m m R.X S.T.U.V.D.V H.W.9.X.n.m Y.Z.`.m |. +.+++m m   5 @+m ",
"X #+$+%+&+R *+=+-+;+>+,+'+)+!+R.r.m n.~+7.W.W.-.{+]+m m   ^+/+(+",
"a._+'.:+q.<+[+}+|+1+2+o.3+4+5+:+W.m f.6+7+X H.Y.8+}.m m   9+0+a+",
"H.m m m q.X b+c+d+e+f+m m m g+h+a.m b.i+$+m m 2+j+E.m m   k+l+m+",
"H.Q m m n+R o+p+q+e+r+s+m m O.z.a.m b.A.B.m m C.D.E.m m   t+u+v+",
"W.w+x+`.y+g.m z+A+].B+C+m m O.z.a.m b.A.B.m m C.D.E.m m D+E+F+G+",
"W.H+I+J+K+L+M+N+m O+P+Q+R+m S+z.a.m b.A.T+m U+2+V+E.m l W+X+| . ",
"m _.r.r.U+Q m Y+Z+y `+ @.@M.+@@@H.a.#@6.$@M.M.%@o.&@|.*@C =@-@  ",
"                ;@>@,@'@)@!@&+~@U+<+m 2+$+:.:.B.{@m ]@^@=@& )   ",
"                  i /@(@_@:@<@m m m m m m m m m (+[@^@}@$ )     ",
"                  |@1@2@3@4@5@4                 6@7@8@9@0@      ",
"                      a@b@c@' d@e@f@g@h@i@j@k@l@m@n@n@^.t       ",
"                        o@p@| ~ ' ` q@r@s@t@u@v@ .l@w@x@s       ",
"                            y@z@C A@B@C . . z@C@D@_ E@{.F@      ",
"                                  G@H H@I@J@        K@L@8 M@    ",
"                                                      1 N@O@|   ",
"                                                        P@o Q@R@",
"                                                      e@S@T@o p ",
"                                                      U@V@P.W@X@",
"                                                          O@O@y "};
