/* XPM */
const static char * race_capture_icon_tiny_xpm[] = {
"16 16 219 2",
"  	c None",
". 	c #967879",
"+ 	c #5D312F",
"@ 	c #551619",
"# 	c #632527",
"$ 	c #91787B",
"% 	c #B8B3B3",
"& 	c #856C70",
"* 	c #653C40",
"= 	c #723D41",
"- 	c #834244",
"; 	c #824244",
"> 	c #824442",
", 	c #876F6E",
"' 	c #B9BCBB",
") 	c #C9C9C9",
"! 	c #A29596",
"~ 	c #E9E9EA",
"{ 	c #E5E7E8",
"] 	c #E6E9EA",
"^ 	c #E6E8EA",
"/ 	c #E1E9EA",
"( 	c #E2EAEA",
"_ 	c #E2E7EA",
": 	c #E2E4E5",
"< 	c #DBD8DB",
"[ 	c #D9D9DB",
"} 	c #D6D7D9",
"| 	c #D3D2D3",
"1 	c #7C3C3C",
"2 	c #9D7F82",
"3 	c #F8FCFE",
"4 	c #CEB9BA",
"5 	c #A67678",
"6 	c #A27878",
"7 	c #A17879",
"8 	c #A2797B",
"9 	c #A2787D",
"0 	c #A1777B",
"a 	c #A1777C",
"b 	c #A27A7F",
"c 	c #C6B3B3",
"d 	c #F0EDF0",
"e 	c #E1E1E1",
"f 	c #8B2B2C",
"g 	c #A98789",
"h 	c #F7FAFD",
"i 	c #B2888C",
"j 	c #771114",
"k 	c #7E1A1E",
"l 	c #801B20",
"m 	c #7F1B20",
"n 	c #7C171F",
"o 	c #77161D",
"p 	c #73141C",
"q 	c #6A0C12",
"r 	c #885053",
"s 	c #DFD8DA",
"t 	c #EDECEC",
"u 	c #B4B8B8",
"v 	c #A43437",
"w 	c #AF898B",
"x 	c #F5F8FD",
"y 	c #BA8D91",
"z 	c #941E23",
"A 	c #9C262E",
"B 	c #96242B",
"C 	c #942229",
"D 	c #8E1F27",
"E 	c #881C23",
"F 	c #831A1F",
"G 	c #791116",
"H 	c #82464A",
"I 	c #DCD2D5",
"J 	c #F5F8F6",
"K 	c #733E3F",
"L 	c #A13235",
"M 	c #AA8688",
"N 	c #F8FBFF",
"O 	c #CEBABB",
"P 	c #A27278",
"Q 	c #A17479",
"R 	c #9D737A",
"S 	c #9D7179",
"T 	c #997278",
"U 	c #977076",
"V 	c #967076",
"W 	c #95777A",
"X 	c #BBB0B1",
"Y 	c #F4EEF5",
"Z 	c #D0D2D3",
"` 	c #5F1C1F",
" .	c #7B2123",
"..	c #A98587",
"+.	c #F8F9FB",
"@.	c #F0F0F3",
"#.	c #F2F4F6",
"$.	c #F4F4F5",
"%.	c #F2F4F4",
"&.	c #F1F4F4",
"*.	c #F2F3F4",
"=.	c #EEEDEE",
"-.	c #EFEDEF",
";.	c #FAFAFC",
">.	c #C5C5C3",
",.	c #673A3D",
"'.	c #701C1F",
").	c #431F22",
"!.	c #A18481",
"~.	c #F5FCFB",
"{.	c #C8A9AF",
"].	c #9F5C60",
"^.	c #A36167",
"/.	c #A06065",
"(.	c #9F5D63",
"_.	c #9C5C63",
":.	c #9F6D71",
"<.	c #E7E4E5",
"[.	c #EBECEE",
"}.	c #886164",
"|.	c #600D11",
"1.	c #7F1E23",
"2.	c #761B20",
"3.	c #5F504E",
"4.	c #A28D8B",
"5.	c #F6F9FB",
"6.	c #C9969D",
"7.	c #B5303D",
"8.	c #B93744",
"9.	c #B83643",
"0.	c #B33340",
"a.	c #A22D2F",
"b.	c #962D2D",
"c.	c #B88D8E",
"d.	c #F5FFFF",
"e.	c #C2A4A4",
"f.	c #923235",
"g.	c #882025",
"h.	c #7D2324",
"i.	c #B4B4B3",
"j.	c #F1F4F6",
"k.	c #C7989D",
"l.	c #B7353E",
"m.	c #C23F49",
"n.	c #BC3C46",
"o.	c #A83239",
"p.	c #A12F34",
"q.	c #9E2D32",
"r.	c #9E4A4E",
"s.	c #DDD7DA",
"t.	c #EDEFF1",
"u.	c #A85E63",
"v.	c #852225",
"w.	c #754340",
"x.	c #BBBBBC",
"y.	c #F1F1F3",
"z.	c #C09FA0",
"A.	c #B34348",
"B.	c #C23E47",
"C.	c #AD363C",
"D.	c #AB363C",
"E.	c #A9353A",
"F.	c #A03135",
"G.	c #AA3A43",
"H.	c #CA9298",
"I.	c #F6FDFD",
"J.	c #C8AFB1",
"K.	c #7A534E",
"L.	c #9BA09B",
"M.	c #BCBBBC",
"N.	c #F9F8FA",
"O.	c #A79B99",
"P.	c #7E4740",
"Q.	c #BD5052",
"R.	c #BA3C45",
"S.	c #B03B40",
"T.	c #AB363B",
"U.	c #C1454F",
"V.	c #CD4957",
"W.	c #C5606E",
"X.	c #E3D0D4",
"Y.	c #F6F5F7",
"Z.	c #B4B5B3",
"`.	c #BBC7C6",
" +	c #B5B5B5",
".+	c #CECECE",
"++	c #AAA8A8",
"@+	c #82655F",
"#+	c #8B6E66",
"$+	c #C2555B",
"%+	c #BB4348",
"&+	c #D05059",
"*+	c #DE5767",
"=+	c #D85463",
"-+	c #9D353B",
";+	c #8D7371",
">+	c #AFB1B0",
",+	c #A3A5A6",
"'+	c #C4CFD4",
")+	c #9C8681",
"!+	c #8B7C71",
"~+	c #CC535A",
"{+	c #EE606D",
"]+	c #E15C67",
"^+	c #AD3A41",
"/+	c #734642",
"(+	c #ACAEAA",
"_+	c #C0C7C7",
":+	c #B2BAB8",
"<+	c #BAC0C3",
"[+	c #9A837F",
"}+	c #89837B",
"|+	c #CB6B73",
"1+	c #B74045",
"2+	c #6C433F",
"3+	c #AEB3AD",
"4+	c #D5DFDE",
"5+	c #D7E6EB",
"6+	c #BEC4C8",
"        . + @ # $               ",
"    % & * = - ; > , ' )         ",
"  ! ~ { ] ^ / ( _ : < [ } |     ",
"1 2 3 4 5 6 7 8 9 0 a b c d e   ",
"f g h i j k l m n o p q r s t u ",
"v w x y z A B C D E F G H I J K ",
"L M N O P Q R S T U V W X Y Z ` ",
" ...+.@.#.$.%.&.%.*.=.-.;.>.,.'.",
").!.~.{.].^./.(._.:.<.[.}.|.1.2.",
"3.4.5.6.7.8.9.0.a.b.c.d.e.f.g.h.",
"  i.j.k.l.m.n.o.p.q.r.s.t.u.v.w.",
"  x.y.z.A.B.C.D.E.F.G.H.I.J.K.L.",
"  M.N.O.P.Q.R.S.T.U.V.W.X.Y.Z.`.",
"   +.+++@+#+$+%+&+*+=+-+;+>+,+'+",
"          )+!+~+{+]+^+/+(+_+:+<+",
"            [+}+|+1+2+3+4+5+6+  "};
