/* XPM */
const static char * race_capture_icon_small_xpm[] = {
"36 36 1042 2",
"  	c None",
". 	c #C6C4C0",
"+ 	c #6D4B4A",
"@ 	c #461213",
"# 	c #4D1515",
"$ 	c #531416",
"% 	c #471715",
"& 	c #75564B",
"* 	c #C3CCCB",
"= 	c #BEB5B0",
"- 	c #7D5457",
"; 	c #54151A",
"> 	c #48110F",
", 	c #481814",
"' 	c #55181C",
") 	c #63161F",
"! 	c #701D28",
"~ 	c #64141D",
"{ 	c #5E232B",
"] 	c #927D7D",
"^ 	c #E3CCD0",
"/ 	c #704A54",
"( 	c #501417",
"_ 	c #56171C",
": 	c #5F171B",
"< 	c #5D0E13",
"[ 	c #6E191B",
"} 	c #781D1D",
"| 	c #7F2021",
"1 	c #7A1C1E",
"2 	c #761B1C",
"3 	c #862421",
"4 	c #731C1D",
"5 	c #743E3E",
"6 	c #C7BAB5",
"7 	c #AFAFAF",
"8 	c #B6B4B4",
"9 	c #B3B1AF",
"0 	c #8E8785",
"a 	c #483436",
"b 	c #4C2B30",
"c 	c #5B3339",
"d 	c #503234",
"e 	c #4D2F31",
"f 	c #5F363B",
"g 	c #6B3138",
"h 	c #703236",
"i 	c #652D2F",
"j 	c #683335",
"k 	c #6B3738",
"l 	c #673935",
"m 	c #70393A",
"n 	c #56272B",
"o 	c #463432",
"p 	c #8D8D88",
"q 	c #B9B9B9",
"r 	c #BCBCBC",
"s 	c #C3C3C3",
"t 	c #D5D5D5",
"u 	c #858B89",
"v 	c #CBC5C7",
"w 	c #C4C4C3",
"x 	c #C0C7C3",
"y 	c #CFCCCD",
"z 	c #CECCCD",
"A 	c #C7D0CC",
"B 	c #CCCFCD",
"C 	c #CFCFCE",
"D 	c #CDCDCC",
"E 	c #CCCFCE",
"F 	c #C8CECD",
"G 	c #C8CFCD",
"H 	c #CAD0CE",
"I 	c #CCD1CF",
"J 	c #CDCBCD",
"K 	c #CACBCB",
"L 	c #D1D2D2",
"M 	c #CAC5C6",
"N 	c #C4C3C2",
"O 	c #C2C1C0",
"P 	c #BEBEBD",
"Q 	c #BABAB8",
"R 	c #A9B2B3",
"S 	c #A2A5A7",
"T 	c #A5A5A6",
"U 	c #B7B7B7",
"V 	c #9B8385",
"W 	c #B1ADAE",
"X 	c #FDF3F7",
"Y 	c #ECF0EE",
"Z 	c #EEF2F3",
"` 	c #F9F1F7",
" .	c #EAF0F2",
"..	c #F6ECF3",
"+.	c #F4EDF3",
"@.	c #F4ECF2",
"#.	c #F6EBF2",
"$.	c #F3EDF2",
"%.	c #F0EFF2",
"&.	c #F1EFF2",
"*.	c #F1EFF1",
"=.	c #F2EEF1",
"-.	c #F4EFF4",
";.	c #F4F0F5",
">.	c #F1F0F4",
",.	c #F0F1F4",
"'.	c #F4EDF4",
").	c #F6EEF4",
"!.	c #ECE7EB",
"~.	c #DFDCDC",
"{.	c #B6B6B6",
"].	c #D7D7D7",
"^.	c #C2AEAC",
"/.	c #653A3C",
"(.	c #531B23",
"_.	c #BFB5B6",
":.	c #EFEFF2",
"<.	c #EDEEF0",
"[.	c #F0EDEE",
"}.	c #EDEBEC",
"|.	c #E9F1EE",
"1.	c #F1EDF3",
"2.	c #EFEDF1",
"3.	c #F0EFF4",
"4.	c #EFEFF3",
"5.	c #EDEFF2",
"6.	c #ECF1F5",
"7.	c #EBF0F4",
"8.	c #EAEFF3",
"9.	c #EFF1F6",
"0.	c #F0EFF5",
"a.	c #ECEDF2",
"b.	c #EFF1F5",
"c.	c #EBEFF5",
"d.	c #F7EDF0",
"e.	c #F2F0F0",
"f.	c #F0ECF0",
"g.	c #F6F3F5",
"h.	c #621E1F",
"i.	c #6F2326",
"j.	c #5F1C22",
"k.	c #B6B8B4",
"l.	c #ECF7F8",
"m.	c #F1EEF2",
"n.	c #F2EFF0",
"o.	c #E3DFDC",
"p.	c #A79293",
"q.	c #A5908D",
"r.	c #A3918D",
"s.	c #A1938E",
"t.	c #9D918C",
"u.	c #9C8E8A",
"v.	c #9F8D8B",
"w.	c #9F8E8C",
"x.	c #9F8D8C",
"y.	c #A28F90",
"z.	c #A08E8F",
"A.	c #9F8D8E",
"B.	c #9E8C8D",
"C.	c #9D898B",
"D.	c #A38D90",
"E.	c #A69093",
"F.	c #A89698",
"G.	c #B8A5A8",
"H.	c #D3D0CA",
"I.	c #F0F7F1",
"J.	c #E5EEEB",
"K.	c #F2EFF3",
"L.	c #F1ECF1",
"M.	c #F4F4F4",
"N.	c #C2C2C2",
"O.	c #71261F",
"P.	c #6C221E",
"Q.	c #612225",
"R.	c #BDB4B3",
"S.	c #F0F2F6",
"T.	c #F5EEF4",
"U.	c #EEEFEE",
"V.	c #D2C6C1",
"W.	c #5F2936",
"X.	c #891E24",
"Y.	c #832227",
"Z.	c #7A1D20",
"`.	c #6E1818",
" +	c #681517",
".+	c #67161A",
"++	c #69171B",
"@+	c #6B191D",
"#+	c #6C1B1E",
"$+	c #6F1D23",
"%+	c #6D1C22",
"&+	c #6C1A20",
"*+	c #6C1920",
"=+	c #69181F",
"-+	c #65181F",
";+	c #63161D",
">+	c #62181D",
",+	c #64191D",
"'+	c #531D29",
")+	c #AA9093",
"!+	c #F5F0F1",
"~+	c #EEEDF2",
"{+	c #EEEBEF",
"]+	c #F3F3F3",
"^+	c #DAD9D9",
"/+	c #CBCBCB",
"(+	c #7E1F22",
"_+	c #912A2C",
":+	c #912F39",
"<+	c #AEB5B4",
"[+	c #F6F0FB",
"}+	c #EDEEEC",
"|+	c #F3EEF3",
"1+	c #CEC8CF",
"2+	c #802D2F",
"3+	c #982C30",
"4+	c #882024",
"5+	c #7C1C1E",
"6+	c #7A2023",
"7+	c #7F2225",
"8+	c #832226",
"9+	c #87262A",
"0+	c #88262A",
"a+	c #862529",
"b+	c #831D26",
"c+	c #811E26",
"d+	c #801E24",
"e+	c #7D1E24",
"f+	c #7C1D24",
"g+	c #7C1D25",
"h+	c #791D24",
"i+	c #771C22",
"j+	c #751C22",
"k+	c #741A1B",
"l+	c #6D2E34",
"m+	c #DEE4E0",
"n+	c #EFF1F3",
"o+	c #EFEDF0",
"p+	c #EEEDEF",
"q+	c #E4EAE5",
"r+	c #B6BAB3",
"s+	c #933034",
"t+	c #962E31",
"u+	c #8C2C35",
"v+	c #B0B5B2",
"w+	c #F6F1FA",
"x+	c #EDEDEC",
"y+	c #CEC7CC",
"z+	c #782529",
"A+	c #7D1F1E",
"B+	c #7E1F20",
"C+	c #822123",
"D+	c #862429",
"E+	c #8A272C",
"F+	c #8C292E",
"G+	c #8A262B",
"H+	c #882429",
"I+	c #87222A",
"J+	c #852129",
"K+	c #832028",
"L+	c #802026",
"M+	c #7F2026",
"N+	c #7D1F26",
"O+	c #7A1D24",
"P+	c #781D23",
"Q+	c #761C22",
"R+	c #741A1D",
"S+	c #682B32",
"T+	c #CBCECA",
"U+	c #F3F3F5",
"V+	c #EFECEE",
"W+	c #EDECEC",
"X+	c #E5E4E5",
"Y+	c #B5B6B8",
"Z+	c #9A2F34",
"`+	c #9B2E31",
" @	c #8E2C34",
".@	c #B0B6B0",
"+@	c #F6F2FA",
"@@	c #EEEEED",
"#@	c #CBC4CA",
"$@	c #732024",
"%@	c #8A2A2B",
"&@	c #8E2B2D",
"*@	c #942D32",
"=@	c #952C34",
"-@	c #932A31",
";@	c #91292F",
">@	c #912930",
",@	c #8F272F",
"'@	c #8F262D",
")@	c #8A252D",
"!@	c #88242C",
"~@	c #86222A",
"{@	c #812027",
"]@	c #802027",
"^@	c #7B1F24",
"/@	c #791E24",
"(@	c #771C20",
"_@	c #6C2D35",
":@	c #D0D0CE",
"<@	c #F3F1F5",
"[@	c #F1EEEF",
"}@	c #EBEFEC",
"|@	c #E2DCDE",
"1@	c #736066",
"2@	c #A23237",
"3@	c #A53335",
"4@	c #953037",
"5@	c #B1B7B0",
"6@	c #F3F0F7",
"7@	c #803032",
"8@	c #A83139",
"9@	c #A23037",
"0@	c #9F2F36",
"a@	c #9B2B36",
"b@	c #972B33",
"c@	c #942A32",
"d@	c #942931",
"e@	c #932931",
"f@	c #942A31",
"g@	c #8F2730",
"h@	c #8D272F",
"i@	c #89242C",
"j@	c #852329",
"k@	c #832327",
"l@	c #812225",
"m@	c #7E2124",
"n@	c #7C2023",
"o@	c #7B1E23",
"p@	c #6C2A32",
"q@	c #CECECB",
"r@	c #F3F0F3",
"s@	c #F2EBF0",
"t@	c #E7F2EF",
"u@	c #E9DFDC",
"v@	c #481016",
"w@	c #885856",
"x@	c #A72D33",
"y@	c #A83435",
"z@	c #97333A",
"A@	c #B3B7B3",
"B@	c #F5F2FB",
"C@	c #EFF1F2",
"D@	c #CBC7C6",
"E@	c #82333E",
"F@	c #B5353A",
"G@	c #AD3238",
"H@	c #A83136",
"I@	c #A43035",
"J@	c #A02E35",
"K@	c #9D2C33",
"L@	c #9B2A32",
"M@	c #9A2930",
"N@	c #99282F",
"O@	c #95282F",
"P@	c #94272E",
"Q@	c #91252B",
"R@	c #8E2329",
"S@	c #8C2127",
"T@	c #8A2126",
"U@	c #862024",
"V@	c #811E21",
"W@	c #801E20",
"X@	c #6E1F29",
"Y@	c #673A3E",
"Z@	c #D5D7D3",
"`@	c #F4F3F4",
" #	c #F6EAF2",
".#	c #EBF2F3",
"+#	c #E6DED8",
"@#	c #581013",
"##	c #6E1F1D",
"$#	c #B2383C",
"%#	c #A63434",
"&#	c #8D2C34",
"*#	c #AFB2AF",
"=#	c #F0F0F9",
"-#	c #DCDCD7",
";#	c #8E5460",
">#	c #7E3C42",
",#	c #7D3B41",
"'#	c #7C3A40",
")#	c #793A41",
"!#	c #763A42",
"~#	c #743941",
"{#	c #73383F",
"]#	c #72363F",
"^#	c #703940",
"/#	c #6E373E",
"(#	c #6E363C",
"_#	c #6C353C",
":#	c #6C343B",
"<#	c #68353A",
"[#	c #673A3D",
"}#	c #6C4041",
"|#	c #7A6065",
"1#	c #B6AFAE",
"2#	c #EAECEC",
"3#	c #F3EBF1",
"4#	c #F7EAF4",
"5#	c #F4FEFE",
"6#	c #AFA6A3",
"7#	c #4C080D",
"8#	c #651A1B",
"9#	c #90272B",
"0#	c #912528",
"a#	c #88262F",
"b#	c #B1B6B2",
"c#	c #F2F7FD",
"d#	c #F1EBEF",
"e#	c #F2E9EC",
"f#	c #EFF3EF",
"g#	c #E6DAD8",
"h#	c #CDD2D6",
"i#	c #D0D2D6",
"j#	c #D0D3D6",
"k#	c #D1D3D7",
"l#	c #D1D2D7",
"m#	c #D2D2D8",
"n#	c #D3D3D9",
"o#	c #D0D3D7",
"p#	c #D1D3D8",
"q#	c #D1D4D8",
"r#	c #D2D5D9",
"s#	c #D0D5D9",
"t#	c #D4DCDF",
"u#	c #DBE4E7",
"v#	c #DFEBEB",
"w#	c #ECF1F4",
"x#	c #F2EDF4",
"y#	c #F2F9F8",
"z#	c #3E2427",
"A#	c #570F18",
"B#	c #691D21",
"C#	c #761F21",
"D#	c #862426",
"E#	c #872730",
"F#	c #B2B8B3",
"G#	c #EFF3F5",
"H#	c #F1EDEF",
"I#	c #F2E9ED",
"J#	c #EDEFF0",
"K#	c #E8F2F2",
"L#	c #F2F3F0",
"M#	c #F2F4F1",
"N#	c #F3F3F0",
"O#	c #F4F2F0",
"P#	c #F5F3F1",
"Q#	c #F6F3F1",
"R#	c #F4F1EF",
"S#	c #F4F1F0",
"T#	c #F5F2F1",
"U#	c #F5F2F0",
"V#	c #F2EFEE",
"W#	c #F5F0EE",
"X#	c #EEF0F6",
"Y#	c #EEEDF1",
"Z#	c #F4F2F5",
"`#	c #F8FCFC",
" $	c #E1E0DD",
".$	c #665252",
"+$	c #43080F",
"@$	c #711D25",
"#$	c #6D1D20",
"$$	c #621415",
"%$	c #7F1F22",
"&$	c #84202C",
"*$	c #ADB7AF",
"=$	c #F4F4F7",
"-$	c #EFECED",
";$	c #F4F0F3",
">$	c #F1EDF2",
",$	c #EEF7FB",
"'$	c #F9F5FA",
")$	c #F9F6FA",
"!$	c #F7F4F9",
"~$	c #F8F3F9",
"{$	c #F3F5F9",
"]$	c #F0F6F8",
"^$	c #EFF6F8",
"/$	c #EFF5F7",
"($	c #F1F5F9",
"_$	c #F1F7F9",
":$	c #EDF0F3",
"<$	c #EDEFF3",
"[$	c #EDECF1",
"}$	c #EDEBF0",
"|$	c #FEFBFF",
"1$	c #FFFFFF",
"2$	c #EBE8E6",
"3$	c #897D7B",
"4$	c #35221B",
"5$	c #4C1818",
"6$	c #7A1C25",
"7$	c #7D1A1F",
"8$	c #6E1C19",
"9$	c #431A27",
"0$	c #5D191E",
"a$	c #6C2122",
"b$	c #C0B3B0",
"c$	c #EEF6F5",
"d$	c #E9F2E9",
"e$	c #FBEBF5",
"f$	c #E4DEE9",
"g$	c #CAACA2",
"h$	c #BEAAB3",
"i$	c #BFA9B1",
"j$	c #BEACB1",
"k$	c #BDACB1",
"l$	c #BDABB1",
"m$	c #BDABB0",
"n$	c #BEACB2",
"o$	c #BFABB1",
"p$	c #B5ADAA",
"q$	c #BFA7AA",
"r$	c #C2ABAD",
"s$	c #B7B2AF",
"t$	c #E8EDED",
"u$	c #EDEDF1",
"v$	c #F0ECED",
"w$	c #EBEBEC",
"x$	c #F9F6FD",
"y$	c #A0A09D",
"z$	c #582A2D",
"A$	c #270600",
"B$	c #3B0804",
"C$	c #74111B",
"D$	c #821D24",
"E$	c #7D1F25",
"F$	c #751B20",
"G$	c #74191F",
"H$	c #31292A",
"I$	c #330E09",
"J$	c #5D2723",
"K$	c #B4B5AF",
"L$	c #F1F6F8",
"M$	c #EDF0EB",
"N$	c #EDE9EC",
"O$	c #CEC4CE",
"P$	c #6B2C30",
"Q$	c #922328",
"R$	c #8D2429",
"S$	c #8C2428",
"T$	c #892327",
"U$	c #872024",
"V$	c #861F23",
"W$	c #831C21",
"X$	c #821B1F",
"Y$	c #811A1D",
"Z$	c #811928",
"`$	c #861928",
" %	c #7F1926",
".%	c #69141A",
"+%	c #B89092",
"@%	c #F0F2F2",
"#%	c #E9EFEF",
"$%	c #F6F2F7",
"%%	c #C6B4B4",
"&%	c #631821",
"*%	c #7B1920",
"=%	c #7D1E22",
"-%	c #88242B",
";%	c #811F25",
">%	c #7E1F24",
",%	c #791D22",
"'%	c #731A1D",
")%	c #0A0809",
"!%	c #40241D",
"~%	c #673531",
"{%	c #BEB3B2",
"]%	c #F4EEF5",
"^%	c #EFF0EB",
"/%	c #F2F1F3",
"(%	c #D2CAD1",
"_%	c #9C3944",
":%	c #C43E4C",
"<%	c #C03C4A",
"[%	c #BE3B49",
"}%	c #B83945",
"|%	c #B73745",
"1%	c #B43542",
"2%	c #B43441",
"3%	c #B23340",
"4%	c #B13439",
"5%	c #A92E33",
"6%	c #982428",
"7%	c #912927",
"8%	c #874140",
"9%	c #E9DEDA",
"0%	c #E5F1EF",
"a%	c #F0EEF3",
"b%	c #ECE8E7",
"c%	c #E7F3EB",
"d%	c #7F5051",
"e%	c #882126",
"f%	c #8A2627",
"g%	c #802525",
"h%	c #852127",
"i%	c #791D20",
"j%	c #791E20",
"k%	c #9E989C",
"l%	c #826761",
"m%	c #5A2E2A",
"n%	c #B9B2B1",
"o%	c #F9F5FD",
"p%	c #F0ECEB",
"q%	c #F1EEF0",
"r%	c #CACACA",
"s%	c #9C383D",
"t%	c #C14150",
"u%	c #BA3C49",
"v%	c #B43846",
"w%	c #B23744",
"x%	c #B43A46",
"y%	c #B53A46",
"z%	c #B53A48",
"A%	c #B13442",
"B%	c #A03637",
"C%	c #932B2B",
"D%	c #942D2D",
"E%	c #932D2D",
"F%	c #852024",
"G%	c #B48C8C",
"H%	c #EFF6F6",
"I%	c #EFEBF0",
"J%	c #EEF2EB",
"K%	c #EDEEF3",
"L%	c #C1ADAB",
"M%	c #87282F",
"N%	c #9C202C",
"O%	c #8F282C",
"P%	c #872125",
"Q%	c #7F1D20",
"R%	c #812324",
"S%	c #882B2C",
"T%	c #6E605C",
"U%	c #B0B2B1",
"V%	c #F1F2F7",
"W%	c #F0ECEC",
"X%	c #C6CCCB",
"Y%	c #9B3A40",
"Z%	c #BF3C44",
"`%	c #BA3941",
" &	c #B93942",
".&	c #BB3C44",
"+&	c #BF3D46",
"@&	c #BF3B46",
"#&	c #BF3E48",
"$&	c #B73A43",
"%&	c #A72D34",
"&&	c #982A2E",
"*&	c #9C2D32",
"=&	c #A03035",
"-&	c #9F2C33",
";&	c #9E2A30",
">&	c #823337",
",&	c #E0DCDB",
"'&	c #F1F2F6",
")&	c #EDEFEC",
"!&	c #EAEEF6",
"~&	c #F1F8F5",
"{&	c #864D51",
"]&	c #96252F",
"^&	c #95282D",
"/&	c #8C2429",
"(&	c #882025",
"_&	c #892F30",
":&	c #702723",
"<&	c #D3D4D4",
"[&	c #ACACAC",
"}&	c #F3F2F5",
"|&	c #EEECEC",
"1&	c #F1F1F3",
"2&	c #C8C9CC",
"3&	c #9B3540",
"4&	c #C8404B",
"5&	c #C03D48",
"6&	c #BF4049",
"7&	c #BF3F49",
"8&	c #C13E49",
"9&	c #C5424F",
"0&	c #B93D47",
"a&	c #A42E37",
"b&	c #9E2E34",
"c&	c #A43034",
"d&	c #A33035",
"e&	c #A23034",
"f&	c #9D3033",
"g&	c #9B2E2D",
"h&	c #8C262B",
"i&	c #987174",
"j&	c #EFFCF9",
"k&	c #F5EBF3",
"l&	c #E8EFF2",
"m&	c #F7F6F9",
"n&	c #DBC5C4",
"o&	c #751D23",
"p&	c #9B242A",
"q&	c #902628",
"r&	c #8F2B31",
"s&	c #692727",
"t&	c #58362E",
"u&	c #A7A7A7",
"v&	c #EBEDEB",
"w&	c #F4EEF2",
"x&	c #D0C7CC",
"y&	c #953D43",
"z&	c #CD3B4A",
"A&	c #CB424F",
"B&	c #C53F4B",
"C&	c #C33F4A",
"D&	c #C84551",
"E&	c #B83B45",
"F&	c #A42B34",
"G&	c #A32E36",
"H&	c #A8343C",
"I&	c #A63338",
"J&	c #A23135",
"K&	c #9E3033",
"L&	c #9D2F32",
"M&	c #992D35",
"N&	c #802433",
"O&	c #C6CBC5",
"P&	c #F4EAEF",
"Q&	c #EBF2F1",
"R&	c #F4E9EE",
"S&	c #F9FEF9",
"T&	c #9A6A6A",
"U&	c #8F2128",
"V&	c #90302E",
"W&	c #6C2A28",
"X&	c #4D302D",
"Y&	c #ABA9A5",
"Z&	c #A9A9A9",
"`&	c #EAECEB",
" *	c #F5ECF1",
".*	c #CFC9CE",
"+*	c #7E4C46",
"@*	c #BF4C50",
"#*	c #C5444D",
"$*	c #D24553",
"%*	c #C94650",
"&*	c #B43B41",
"**	c #A93238",
"=*	c #AD383D",
"-*	c #AA353B",
";*	c #A9363B",
">*	c #A53337",
",*	c #A33336",
"'*	c #A13336",
")*	c #992E31",
"!*	c #9E2934",
"~*	c #B93B4C",
"{*	c #B38285",
"]*	c #F0EBEB",
"^*	c #EFEFEB",
"/*	c #F2EAEF",
"(*	c #E7F5F2",
"_*	c #DFCFCF",
":*	c #762F33",
"<*	c #652522",
"[*	c #4A3129",
"}*	c #999B93",
"|*	c #9CA9A3",
"1*	c #ADADAD",
"2*	c #F6F1F6",
"3*	c #EBEBEA",
"4*	c #C7CDCF",
"5*	c #695A47",
"6*	c #9A594B",
"7*	c #C75158",
"8*	c #D03E4D",
"9*	c #B0363E",
"0*	c #A4373A",
"a*	c #AF3C3F",
"b*	c #AE3A3D",
"c*	c #AB3639",
"d*	c #AF383C",
"e*	c #A8373C",
"f*	c #A63438",
"g*	c #A9373B",
"h*	c #9E3133",
"i*	c #9A3238",
"j*	c #C64554",
"k*	c #CC4655",
"l*	c #B04154",
"m*	c #D2DAD6",
"n*	c #F5EDE9",
"o*	c #EBF0EF",
"p*	c #E6E7EB",
"q*	c #F6F4F5",
"r*	c #896D6D",
"s*	c #44211F",
"t*	c #B2B7AA",
"u*	c #99A99A",
"v*	c #B8C0B5",
"w*	c #F9F5F3",
"x*	c #F0ECEF",
"y*	c #ECF1F9",
"z*	c #D2C8C7",
"A*	c #6E5B49",
"B*	c #9E5057",
"C*	c #974B42",
"D*	c #D55060",
"E*	c #C1333A",
"F*	c #B93F3A",
"G*	c #B63B44",
"H*	c #AD3A3F",
"I*	c #B23D43",
"J*	c #AE393F",
"K*	c #B7343C",
"L*	c #AC393E",
"M*	c #A03237",
"N*	c #A8323B",
"O*	c #CD515A",
"P*	c #CB4B56",
"Q*	c #D04356",
"R*	c #B43F51",
"S*	c #B57877",
"T*	c #ECF3F7",
"U*	c #F1EEF7",
"V*	c #EFEBEE",
"W*	c #C8CECA",
"X*	c #A0A39F",
"Y*	c #A0A6A5",
"Z*	c #B3BEC0",
"`*	c #BFCDD0",
" =	c #F4F1F1",
".=	c #F0EEF1",
"+=	c #ECEEF3",
"@=	c #D2CCCB",
"#=	c #615245",
"$=	c #6F4544",
"%=	c #662C1F",
"&=	c #9B5C58",
"*=	c #CC5C63",
"==	c #CE3F49",
"-=	c #BC3B46",
";=	c #B43D43",
">=	c #AE3B3F",
",=	c #B6343E",
"'=	c #AF3B3D",
")=	c #A32F33",
"!=	c #BA414A",
"~=	c #D3535E",
"{=	c #D64F5D",
"]=	c #CE4F5B",
"^=	c #CB4D5B",
"/=	c #C74559",
"(=	c #AD3949",
"_=	c #CCBFC1",
":=	c #F2F2F3",
"<=	c #F2ECF4",
"[=	c #F3ECF0",
"}=	c #F1F2EF",
"|=	c #A4A4A2",
"1=	c #BAC1C0",
"2=	c #CCD7D8",
"3=	c #B4C2C3",
"4=	c #F9F8F8",
"5=	c #F3F3F4",
"6=	c #EEEFF0",
"7=	c #DAD8D7",
"8=	c #3E3731",
"9=	c #371A1C",
"0=	c #834E43",
"a=	c #B2AB97",
"b=	c #A77D78",
"c=	c #D25662",
"d=	c #CE414F",
"e=	c #BB3742",
"f=	c #AB4344",
"g=	c #B34347",
"h=	c #A33134",
"i=	c #C34A50",
"j=	c #DB5864",
"k=	c #DD5563",
"l=	c #DF5263",
"m=	c #CF515D",
"n=	c #CA5460",
"o=	c #CF495A",
"p=	c #CA3A4D",
"q=	c #755859",
"r=	c #F7F0EF",
"s=	c #F4EFF3",
"t=	c #F8F0F4",
"u=	c #F5F5F4",
"v=	c #E2E3E3",
"w=	c #AAB0B3",
"x=	c #BFCACC",
"y=	c #C0CED1",
"z=	c #A0A0A0",
"A=	c #B6B6B7",
"B=	c #B8B8BA",
"C=	c #B9B9B7",
"D=	c #A4A4A3",
"E=	c #6C6E6E",
"F=	c #A7A0A3",
"G=	c #80463F",
"H=	c #9E9383",
"I=	c #4C5048",
"J=	c #8F5D57",
"K=	c #D35F64",
"L=	c #CC404D",
"M=	c #B14145",
"N=	c #A53036",
"O=	c #CA4D53",
"P=	c #E25B66",
"Q=	c #DE5463",
"R=	c #DE5A66",
"S=	c #DA5664",
"T=	c #D65766",
"U=	c #CF535F",
"V=	c #C44752",
"W=	c #8F2729",
"X=	c #572D2A",
"Y=	c #8E8982",
"Z=	c #ADB1B0",
"`=	c #ABAAAB",
" -	c #B0B2B2",
".-	c #B8B7B9",
"+-	c #848A8C",
"@-	c #C0CBCF",
"#-	c #C4D1D7",
"$-	c #C9C9CA",
"%-	c #C9C9C8",
"&-	c #B79794",
"*-	c #815657",
"=-	c #B2ADA4",
"--	c #636B59",
";-	c #A0716A",
">-	c #D95B65",
",-	c #CF4750",
"'-	c #DC6066",
")-	c #E6636C",
"!-	c #E25766",
"~-	c #E45669",
"{-	c #DF5B6A",
"]-	c #DD5B6B",
"^-	c #DC5967",
"/-	c #C84A53",
"(-	c #8C2729",
"_-	c #662820",
":-	c #412A26",
"<-	c #8B8C85",
"[-	c #828C88",
"}-	c #8D9292",
"|-	c #6E7171",
"1-	c #828484",
"2-	c #ADB7B7",
"3-	c #C8D4D7",
"4-	c #C8D0D7",
"5-	c #BC9C9E",
"6-	c #896864",
"7-	c #A9B0A2",
"8-	c #A09C91",
"9-	c #A4786F",
"0-	c #D5535D",
"a-	c #ED5B65",
"b-	c #EB636D",
"c-	c #E8626E",
"d-	c #DE5B68",
"e-	c #DF5A68",
"f-	c #CB4A55",
"g-	c #872021",
"h-	c #5E221D",
"i-	c #492C27",
"j-	c #B9BAB6",
"k-	c #ACB1AC",
"l-	c #C8D4D0",
"m-	c #D7E0E1",
"n-	c #B2B4B4",
"o-	c #BEC3C0",
"p-	c #A3B0AD",
"q-	c #CFDADB",
"r-	c #A5A9AF",
"s-	c #B09997",
"t-	c #956668",
"u-	c #8D9686",
"v-	c #42483B",
"w-	c #8D5A57",
"x-	c #E45260",
"y-	c #F15C6F",
"z-	c #EE636D",
"A-	c #E66267",
"B-	c #E75E68",
"C-	c #CF4D56",
"D-	c #872022",
"E-	c #662823",
"F-	c #48342D",
"G-	c #BCC4BE",
"H-	c #ACAAA9",
"I-	c #C7D0CD",
"J-	c #E2F0F0",
"K-	c #CED8DB",
"L-	c #C0C7CA",
"M-	c #B7BFBE",
"N-	c #BCC4C6",
"O-	c #A0A4A8",
"P-	c #D5D7DA",
"Q-	c #B4898F",
"R-	c #986F70",
"S-	c #95A094",
"T-	c #5E6355",
"U-	c #8A6A63",
"V-	c #C55263",
"W-	c #E35F6A",
"X-	c #F06067",
"Y-	c #D04E56",
"Z-	c #8A2527",
"`-	c #5E221C",
" ;	c #48342E",
".;	c #A4ACA3",
"+;	c #A8B7AD",
"@;	c #CBCCCE",
"#;	c #E6F1F1",
"$;	c #CFDEE0",
"%;	c #CAD9DE",
"&;	c #D9E5EA",
"*;	c #C8CFD3",
"=;	c #B6B6BA",
"-;	c #A99490",
";;	c #8D6966",
">;	c #9C9D93",
",;	c #9AA7A5",
"';	c #C6AFAD",
");	c #B25258",
"!;	c #D24F55",
"~;	c #7A1F20",
"{;	c #5C2723",
"];	c #553A36",
"^;	c #BEC4BF",
"/;	c #ABB9AF",
"(;	c #D9D9CC",
"_;	c #EAEFF4",
":;	c #D4E0E2",
"<;	c #CFE0E4",
"[;	c #DAE9F0",
"};	c #D6E6EC",
"|;	c #B7C0C4",
"1;	c #B8B6BB",
"                      . + @ # $ % & *                                   ",
"                  = - ; > , ' ) ! ~ { ]                                 ",
"              ^ / ( _ : < [ } | 1 2 3 4 5 6                             ",
"      7 8 9 0 a b c d e f g h i j k l m n o p 7 q r s t                 ",
"      u v w x y z A B C D E F G H I J K L z M N O P Q R S T U           ",
"    V W X Y Z `  ...+.@.#.$.%.&.%.&.*.*.*.*.=.-.;.>.,.'.).!.~.{.].      ",
"^./.(._.:.<.[.}.|.1.2.3.4.5.6.7.7.8.7.7.7.7.9.0.a.b.c.d.[.e.f.g.s       ",
"h.i.j.k.l.m.n.o.p.q.r.s.t.u.v.v.w.x.y.z.A.B.C.D.E.F.G.H.I.J.K.L.M.N.    ",
"O.P.Q.R.S.T.U.V.W.X.Y.Z.`. +.+++@+#+$+%+&+*+=+-+;+>+,+'+)+!+~+{+]+^+/+  ",
"(+_+:+<+[+}+|+1+2+3+4+5+6+7+8+9+0+a+b+c+d+e+f+g+h+i+j+k+l+m+n+o+p+q+r+  ",
"s+t+u+v+w+x+=.y+z+A+B+C+D+E+F+F+G+H+I+J+K+L+M+N+O+P+Q+R+S+T+U+V+W+X+Y+  ",
"Z+`+ @.@+@@@K.#@$@%@&@*@=@-@;@>@,@'@)@!@~@K+{@]@M+^@/@(@_@:@<@[@}@|@1@  ",
"2@3@4@5@6@x+|+y+7@8@9@0@a@b@c@d@e@f@g@h@i@~@j@k@l@m@n@o@p@q@r@s@t@u@v@w@",
"x@y@z@A@B@=.C@D@E@F@G@H@I@J@K@L@M@N@O@P@Q@R@S@T@U@V@W@X@Y@Z@`@ #.#+#@###",
"$#%#&#*#=#$.@@-#;#>#>#,#'#)#!#~#{#]#^#/#(#_#:#:#<#[#}#|#1#2#3#4#5#6#7#8#",
"9#0#a#b#c#d#e#f#g#h#i#j#j#k#l#m#m#n#o#p#q#q#q#r#s#t#u#v#w#3.x#~+y#z#A#B#",
"C#D#E#F#G#H#I#J#K#L#L#L#M#N#O#O#P#Q#R#S#O#T#U#P#U#V#W#X#Y#Z#`# $.$+$@$#$",
"$$%$&$*$=$-$;$>$,$'$)$!$~${$]$]$^$/$($_$_$($:$:$<$[$}$|$1$2$3$4$5$6$7$8$",
"9$0$a$b$c$d$e$f$g$h$i$j$k$l$m$n$l$o$p$q$r$s$t$u$v$w$x$y$z$A$B$C$D$E$F$G$",
"H$I$J$K$L$M$N$O$P$Q$R$S$T$U$V$W$X$Y$Z$`$ %.%+%@%#%p+$%%%&%*%=%-%;%>%,%'%",
")%!%~%{%]%^%/%(%_%:%<%[%}%|%1%2%1%3%4%5%6%7%8%9%0%a%b%c%d%e%f%g%h%8+i%j%",
"k%l%m%n%o%p%q%r%s%t%u%v%w%x%y%y%z%A%B%C%D%E%F%G%H%I%J%K%L%M%N%O%P%Q%R%S%",
"    T%U%V%W%*.X%Y%Z%`% &.&+&@&#&$&%&&&*&=&-&;&>&,&'&)&!&~&{&]&^&/&(&_&:&",
"    <&[&}&|&1&2&3&4&5&6&7&8&9&0&a&b&c&d&e&f&g&h&i&j&k&l&m&n&o&p&q&r&s&t&",
"      u&=$v&w&x&y&z&A&B&C&D&E&F&G&H&I&I&J&K&L&M&N&O&P&Q&R&S&T&U&V&W&X&Y&",
"      Z&<@`& *.*+*@*#*$*%*&*H@**=*-*;*>*,*'*)*!*~*{*]*^*/*(*_*:*<*[*}*|*",
"      1*2*3* *4*5*6*7*8*9*0*a*b*c*d*e*f*g*h*i*j*k*l*m*n*o*p*q*r*s*t*u*v*",
"      Z&w*x*y*z*A*B*C*D*E*F*G*H*I*J*K*L*M*N*O*P*Q*R*S*m&T*U*V*W*X*Y*Z*`*",
"      Z& =.=+=@=#=$=%=&=*===-=;=>=,='=)=!=~={=]=^=/=(=_=:=<=[=}=|=1=2=3=",
"      Z&4=5=6=7=8=9=0=a=b=c=d=e=f=g=h=i=j=k=l=m=n=o=p=q=r=s=t=u=v=w=x=y=",
"      z=A=B=C=D=E=F=G=H=I=J=K=L=M=N=O=P=Q=R=S=T=U=V=W=X=Y=Z=`= -.-+-@-#-",
"        $-$-%-r%    &-*-=---;->-,-'-)-!-~-{-]-^-/-(-_-:-<-[-}-|-1-2-3-4-",
"                      5-6-7-8-9-0-a-b-c-d-d-e-f-g-h-i-j-k-l-m-n-o-p-q-r-",
"                        s-t-u-v-w-x-y-z-A-B-C-D-E-F-G-H-I-J-K-L-M-N-O-P-",
"                          Q-R-S-T-U-V-W-X-Y-Z-`- ;.;+;@;#;$;%;&;*;=;    ",
"                            -;;;>;,;';);!;~;{;];^;/;(;_;:;<;[;};|;1;    "};
