/* XPM */
const static char * stopwatch_xpm[] = {
"65 65 2 1",
" 	c None",
".	c #000000",
"                           ........                              ",
"                          ..........                             ",
"                          ..........                             ",
"                          ..........                             ",
"                          ..........                             ",
"                          ..........                             ",
"                          ..........                             ",
"                          ..........                             ",
"                          ..........                             ",
"                          ..........                             ",
"                       ................               ...        ",
"                    ......................           .....       ",
"                  ..........................        .......      ",
"                .........            .........     .........     ",
"               .......                  .......   ...........    ",
"              ......          ..          ...................    ",
"            ......            ...           .................    ",
"           ......            ....             ..............     ",
"          .....              ....              ............      ",
"          ....               ....               ..........       ",
"         ....                ....                ........        ",
"        ....                 ....                 ......         ",
"       .....                 ....                  ....          ",
"       ....                  ....                  .....         ",
"      ....                   ....                   ....         ",
"      ....                   ....                    ....        ",
"     ....                    ....                    ....        ",
"     ....                    ....                     ...        ",
"     ...                     ....                     ....       ",
"    ....                     ....                     ....       ",
"    ....                     ....                      ...       ",
"    ...                      ....                      ....      ",
"    ...                      ....                      ....      ",
"   ....                      ....                      ....      ",
"   ....                      ....                      ....      ",
"   ....                      ....                       ...      ",
"   ....                      ....                       ...      ",
"   ....                       ...                       ...      ",
"   ....                       ..                        ...      ",
"   ....                                                ....      ",
"   ....                                                ....      ",
"    ...                                                ....      ",
"    ...                                                ....      ",
"    ....                                               ...       ",
"    ....                                              ....       ",
"     ...                                              ....       ",
"     ....                                             ....       ",
"     ....                                            ....        ",
"      ....                                           ....        ",
"      ....                                          ....         ",
"       ....                                         ....         ",
"       ....                                        ....          ",
"        ....                                      .....          ",
"         ....                                    .....           ",
"         .....                                  .....            ",
"          .....                                .....             ",
"           .....                              .....              ",
"            ......                           .....               ",
"             ......                        ......                ",
"              .......                    .......                 ",
"                ........              ........                   ",
"                  ............  .............                    ",
"                   ........................                      ",
"                      ..................                         ",
"                          ...........                            "};
