/* XPM */
const char * upArrow_xpm[] = {
"100 64 88 1",
" 	c None",
".	c #000000",
"+	c #010101",
"@	c #020202",
"#	c #252525",
"$	c #919191",
"%	c #0A0A0A",
"&	c #696969",
"*	c #B2B2B2",
"=	c #B3B3B3",
"-	c #414141",
";	c #A3A3A3",
">	c #404040",
",	c #1A1A1A",
"'	c #858585",
")	c #050505",
"!	c #5D5D5D",
"~	c #AFAFAF",
"{	c #5C5C5C",
"]	c #333333",
"^	c #9B9B9B",
"/	c #323232",
"(	c #121212",
"_	c #797979",
":	c #787878",
"<	c #4F4F4F",
"[	c #ABABAB",
"}	c #AAAAAA",
"|	c #272727",
"1	c #929292",
"2	c #262626",
"3	c #0B0B0B",
"4	c #6B6B6B",
"5	c #6A6A6A",
"6	c #424242",
"7	c #A4A4A4",
"8	c #1D1D1D",
"9	c #878787",
"0	c #1B1B1B",
"a	c #060606",
"b	c #5F5F5F",
"c	c #353535",
"d	c #9D9D9D",
"e	c #9C9C9C",
"f	c #131313",
"g	c #7B7B7B",
"h	c #515151",
"i	c #292929",
"j	c #939393",
"k	c #0C0C0C",
"l	c #6E6E6E",
"m	c #444444",
"n	c #A5A5A5",
"o	c #1E1E1E",
"p	c #898989",
"q	c #1C1C1C",
"r	c #070707",
"s	c #606060",
"t	c #B0B0B0",
"u	c #5E5E5E",
"v	c #373737",
"w	c #9E9E9E",
"x	c #151515",
"y	c #7C7C7C",
"z	c #030303",
"A	c #545454",
"B	c #ACACAC",
"C	c #2B2B2B",
"D	c #959595",
"E	c #282828",
"F	c #0D0D0D",
"G	c #707070",
"H	c #6C6C6C",
"I	c #464646",
"J	c #A6A6A6",
"K	c #434343",
"L	c #040404",
"M	c #141414",
"N	c #111111",
"O	c #101010",
"P	c #0F0F0F",
"Q	c #838383",
"R	c #080808",
"S	c #090909",
"T	c #0E0E0E",
"U	c #808080",
"V	c #343434",
"W	c #484848",
"                                                 ..                                                 ",
"                                                +@@+                                                ",
"                                              +.#$$#.+                                              ",
"                                            ..%&*==*&%..                                            ",
"                                           +.-;======;>.@                                           ",
"                                         +.,'==========',.+                                         ",
"                                       .+)!~============~{)+.                                       ",
"                                      @.]^================^/.@                                      ",
"                                    ..(_====================:(..                                    ",
"                                   +@<[======================}<@+                                   ",
"                                 @.|1==========================$2.@                                 ",
"                               ..34*============================*53..                               ",
"                              @.67================================7-.@                              ",
"                            +.89===================================='0.+                            ",
"                          .+ab~======================================~!)+.                          ",
"                         @.cd==========================================e].@                         ",
"                       +.fg==============================================_(..                       ",
"                      +@h[================================================[<@+                      ",
"                    @.ij====================================================1|.@                    ",
"                  ..kl*======================================================*43..                  ",
"                 @+mn==========================================================76.@                 ",
"               +.op==============================================================9q.+               ",
"             .+rst================================================================~u)+.             ",
"            @.vw====================================================================ec.@            ",
"          +.xy========================================================================_f.+          ",
"        .+zAB==========================================================================[h@+         ",
"       @.CD==============================================================================jE.@       ",
"     ..FG*================================================================================*H3..     ",
"    @+IJ====================================================================================7K.@    ",
"  ...LMMMffffff(((NNNNNNOOPPPO'======================================Q))arrRSS%%3kkFTTPOON((fML...  ",
" .............................U======================================U............................. ",
"                             .U======================================U.                             ",
"                             .U======================================U.                             ",
"                             .U======================================U.                             ",
"                             .U======================================U.                             ",
"                             .U======================================U.                             ",
"                             .U======================================U.                             ",
"                             .U======================================U.                             ",
"                             .U======================================U.                             ",
"                             .U======================================U.                             ",
"                             .U======================================U.                             ",
"                             .U======================================U.                             ",
"                             .U======================================U.                             ",
"                             .U======================================U.                             ",
"                             .U======================================U.                             ",
"                             .U======================================U.                             ",
"                             .U======================================U.                             ",
"                             .U======================================U.                             ",
"                             .U======================================U.                             ",
"                             .U======================================U.                             ",
"                             .U======================================U.                             ",
"                             .U======================================U.                             ",
"                             .U======================================U.                             ",
"                             .U======================================U.                             ",
"                             .U======================================U.                             ",
"                             .U======================================U.                             ",
"                             .U======================================U.                             ",
"                             .U======================================U.                             ",
"                             .U======================================U.                             ",
"                             .U======================================U.                             ",
"                             .U======================================U.                             ",
"                             .U======================================U.                             ",
"                             .VWWWWWWWWWWWWWWWWWWWWWWWWWWWWWWWWWWWWWWV.                             ",
"                             ..........................................                             "};
